<?xml version="1.0" encoding="UTF-8" standalone="no"?>
<svg
   xmlns:dc="http://purl.org/dc/elements/1.1/"
   xmlns:cc="http://creativecommons.org/ns#"
   xmlns:rdf="http://www.w3.org/1999/02/22-rdf-syntax-ns#"
   xmlns:svg="http://www.w3.org/2000/svg"
   xmlns="http://www.w3.org/2000/svg"
   xmlns:sodipodi="http://sodipodi.sourceforge.net/DTD/sodipodi-0.dtd"
   xmlns:inkscape="http://www.inkscape.org/namespaces/inkscape"
   width="121.135"
   height="27"
   viewBox="0 0 32.050302 7.1437502"
   version="1.1"
   id="svg1323"
   inkscape:version="1.0.1 (c497b03c, 2020-09-10)"
   sodipodi:docname="logo-sm.svg">
  <defs
     id="defs1317" />
  <sodipodi:namedview
     id="base"
     pagecolor="#ffffff"
     bordercolor="#666666"
     borderopacity="1.0"
     inkscape:pageopacity="0.0"
     inkscape:pageshadow="2"
     inkscape:zoom="4"
     inkscape:cx="121.55219"
     inkscape:cy="13.677944"
     inkscape:document-units="px"
     inkscape:current-layer="layer1"
     showgrid="false"
     units="px"
     inkscape:window-width="1680"
     inkscape:window-height="948"
     inkscape:window-x="0"
     inkscape:window-y="25"
     inkscape:window-maximized="1"
     inkscape:document-rotation="0" />
  <metadata
     id="metadata1320">
    <rdf:RDF>
      <cc:Work
         rdf:about="">
        <dc:format>image/svg+xml</dc:format>
        <dc:type
           rdf:resource="http://purl.org/dc/dcmitype/StillImage" />
        <dc:title></dc:title>
      </cc:Work>
    </rdf:RDF>
  </metadata>
  <g
     inkscape:label="Ebene 1"
     inkscape:groupmode="layer"
     id="layer1"
     transform="translate(0,-289.85624)">
    <path
       style="fill:#212529;fill-opacity:1;stroke:none;stroke-width:0.300087;stroke-linecap:round;stroke-linejoin:round;stroke-miterlimit:4;stroke-dasharray:none"
       d="m 3.7420257,296.9571 c -0.3262056,-0.0407 -0.5091631,-0.0825 -0.6322039,-0.14456 -0.091158,-0.0459 -0.098343,-0.0456 -0.2182403,0.0105 -0.1164334,0.0545 -0.1665991,0.058 -0.819652,0.0574 -0.6387473,0 -0.7157922,-0.006 -0.9412173,-0.0641 -0.135037,-0.0349 -0.3222925,-0.0998 -0.416209,-0.1441 C 0.263076,296.45907 -0.003663,295.92073 0.07056,295.37257 0.09173,295.2174 0.08788,295.16152 0.04875,295.0508 0.00513,294.92785 0.00128,294.74032 0,292.76949 c 0,-2.13563 0,-2.14819 0.05774,-2.30521 0.04298,-0.1148 0.104693,-0.20368 0.226644,-0.32568 0.14158,-0.14171 0.1964287,-0.17669 0.3530844,-0.22506 0.1738481,-0.0537 0.2469156,-0.0573 1.1723518,-0.0573 0.730996,0 1.0230736,0.009 1.1262277,0.0361 0.287202,0.0745 0.5344384,0.29998 0.6483698,0.59131 0.033358,0.0858 0.052603,0.23372 0.062867,0.49105 l 0.014755,0.36828 h 0.3849677 c 0.4423182,0 0.7864861,0.0633 1.2089177,0.22096 l 0.250957,0.0937 0.1204106,-0.0893 0.1203464,-0.0893 0.010905,-0.28645 c 0.00898,-0.24425 0.021811,-0.30912 0.08609,-0.44036 0.082306,-0.16813 0.2545503,-0.34369 0.4200587,-0.4281 0.1964291,-0.10022 0.3946544,-0.11894 1.1556086,-0.10924 0.7114299,0.009 0.7241959,0.0103 0.8732177,0.0802 0.184048,0.0863 0.3385226,0.21785 0.4359673,0.37127 l 0.073003,0.11486 0.079098,-0.0845 c 0.2707796,-0.28928 0.8721272,-0.62684 1.3346526,-0.74925 0.237999,-0.063 0.326912,-0.0722 0.708672,-0.0736 0.47651,-0.002 0.748316,0.0378 1.124174,0.16341 0.638363,0.21332 1.105122,0.56994 1.396943,1.06724 l 0.147675,0.25171 h 0.564076 c 0.410756,0 0.599359,0.0107 0.693853,0.0391 0.12535,0.0377 0.136705,0.0362 0.338522,-0.0446 0.11637,-0.0466 0.281814,-0.0895 0.373934,-0.0969 0.216957,-0.0174 0.554646,0.0668 0.850059,0.21213 l 0.224078,0.11024 0.186294,-0.0938 c 0.336149,-0.16924 0.551438,-0.22069 0.920561,-0.21989 0.346797,0 0.526355,0.0353 0.843771,0.16223 l 0.171155,0.0685 0.133626,-0.0617 c 0.126955,-0.0586 0.171731,-0.062 0.89227,-0.07 0.609047,-0.007 0.785782,0 0.896505,0.032 0.134972,0.0396 0.142542,0.0386 0.346285,-0.043 0.115984,-0.0464 0.281493,-0.0893 0.373419,-0.0967 0.217023,-0.0174 0.554711,0.0668 0.850124,0.21213 l 0.224079,0.11024 0.185137,-0.0932 c 0.553492,-0.27858 1.154519,-0.30462 1.732901,-0.0751 l 0.192002,0.0762 0.112199,-0.0571 c 0.104694,-0.0533 0.163905,-0.0577 0.884766,-0.0655 0.645996,-0.007 0.793735,-0.002 0.901829,0.0346 0.127979,0.0425 0.130931,0.0421 0.292013,-0.0384 0.200985,-0.10042 0.401776,-0.12613 0.665434,-0.0852 0.24172,0.0375 0.391126,0.0996 0.526998,0.21885 l 0.100651,0.0883 0.229017,-0.0984 c 0.471636,-0.20257 0.921139,-0.268 1.43274,-0.20853 1.121674,0.13041 1.91528,0.78713 2.213003,1.8313 0.07595,0.26641 0.100332,0.70899 0.04747,0.85697 -0.03528,0.0985 -0.034,0.12257 0.01411,0.25916 0.04362,0.12333 0.05068,0.19505 0.03849,0.39613 -0.03849,0.63166 -0.384775,1.3369 -0.854356,1.73945 -0.729456,0.62527 -1.92625,0.79476 -2.929565,0.41489 -0.377141,-0.14279 -0.838833,-0.4734 -0.947247,-0.67835 l -0.04491,-0.0847 -0.02053,0.11669 c -0.04811,0.27078 -0.256282,0.52487 -0.538416,0.65712 l -0.153321,0.0719 -1.57387,0.008 c -1.478799,0.007 -1.583108,0.004 -1.725521,-0.0435 -0.148573,-0.0502 -0.154669,-0.0501 -0.305935,0.002 -0.141132,0.0477 -0.224335,0.0513 -0.975282,0.0427 -0.670308,-0.008 -0.837485,-0.0171 -0.910937,-0.0517 -0.08243,-0.0387 -0.101808,-0.0382 -0.231841,0.007 -0.130225,0.045 -0.271741,0.049 -1.710576,0.049 -1.444093,0 -1.580028,-0.004 -1.711858,-0.0495 -0.138308,-0.0478 -0.148123,-0.0478 -0.286431,0 -0.125608,0.0434 -0.240758,0.0495 -0.934418,0.0493 -0.682947,0 -0.809452,-0.007 -0.925308,-0.0478 -0.128494,-0.0456 -0.14049,-0.0455 -0.282968,0.003 -0.133947,0.0452 -0.230878,0.0494 -0.970663,0.042 -0.937945,-0.01 -0.957832,-0.0136 -1.213536,-0.2528 l -0.134332,-0.1256 -0.164931,0.0967 c -0.238897,0.14001 -0.561253,0.27227 -0.839538,0.34446 -0.3357,0.0871 -0.898942,0.089 -1.240416,0.004 -0.293553,-0.073 -0.6029513,-0.19466 -0.8870101,-0.34884 l -0.2204214,-0.11969 -0.1205389,0.12295 c -0.2399232,0.24464 -0.4212769,0.29058 -1.2936606,0.32779 -0.5454083,0.0232 -0.8256821,-0.0234 -1.1835141,-0.19703 l -0.2559608,-0.12423 -0.1805199,0.0821 c -0.6226457,0.28303 -1.6366097,0.39712 -2.534333,0.28518 z m 1.6172361,-0.98477 c 0.3468623,-0.0766 0.7070679,-0.21403 0.8079766,-0.30826 0.085064,-0.0795 0.085385,-0.0807 0.07326,-0.31085 -0.00642,-0.12707 -0.019887,-0.23869 -0.028868,-0.24803 -0.00962,-0.009 -0.05132,0.007 -0.093596,0.0371 -0.1412596,0.0997 -0.3525718,0.19345 -0.5700423,0.25302 -0.1759649,0.0482 -0.3169679,0.0617 -0.7635842,0.073 -0.6087891,0.0155 -0.8662895,-0.0124 -1.4489051,-0.15668 -0.3195341,-0.0791 -0.3290283,-0.0798 -1.1542613,-0.0816 -0.8165087,-0.002 -0.8638518,-0.006 -1.0672733,-0.0928 -0.060302,-0.0257 -0.078777,0.0325 -0.097894,0.30353 -0.019887,0.27924 0.010264,0.33383 0.2299157,0.41997 0.1412596,0.0554 0.2162516,0.063 0.717011,0.073 l 0.5592648,0.0112 0.054528,-0.11771 c 0.065754,-0.14182 0.1552444,-0.17377 0.4228806,-0.15088 0.2647494,0.0226 0.4290391,0.0879 0.4816426,0.1914 0.023736,0.0472 0.047471,0.0903 0.052603,0.0957 0.00642,0.005 0.1167541,0.0263 0.2489042,0.0464 0.3584734,0.0545 1.2570307,0.0332 1.5769496,-0.0375 z m 6.1461392,0.0334 c 0.598011,-0.12291 1.054314,-0.47014 1.340362,-1.02004 0.118999,-0.22867 0.231198,-0.58315 0.261542,-0.82622 l 0.01924,-0.15658 h -0.679483 -0.679419 l -0.04555,0.19322 c -0.02502,0.10629 -0.07692,0.24705 -0.115407,0.31282 -0.283609,0.48385 -1.024164,0.44099 -1.285321,-0.0744 -0.126056,-0.2488 -0.159542,-0.45735 -0.156848,-0.97727 0,-0.52064 0.04491,-0.75672 0.183471,-1.0306 0.233829,-0.46146 0.793671,-0.55269 1.149899,-0.1874 0.132343,0.13571 0.184048,0.2454 0.242874,0.51552 l 0.01604,0.075 h 0.671336 0.6714 l -0.0186,-0.14321 c -0.101358,-0.77782 -0.473175,-1.35151 -1.06599,-1.64472 -0.545729,-0.26998 -1.349408,-0.30501 -1.896548,-0.0827 -0.8507652,0.34572 -1.3907206,1.30139 -1.3907206,2.4614 0,1.40614 0.6776226,2.3726 1.8141786,2.58736 0.266995,0.0505 0.711494,0.0495 0.962772,-0.002 z m 18.488326,-0.0654 c 0.443153,-0.14015 0.75146,-0.38728 0.924089,-0.74069 0.102063,-0.20908 0.180776,-0.47128 0.180776,-0.60229 v -0.0761 h -0.624377 -0.624443 l -0.0186,0.10229 c -0.08699,0.47559 -0.636182,0.6035 -0.88778,0.20675 -0.105786,-0.16678 -0.147355,-0.37278 -0.145045,-0.71825 0.0064,-0.62513 0.196494,-0.95483 0.556763,-0.95483 0.213108,0 0.415118,0.18508 0.451683,0.41388 l 0.01669,0.10445 h 0.633488 0.63355 l -0.02053,-0.13107 c -0.05517,-0.34984 -0.171281,-0.60346 -0.380861,-0.83273 -0.171667,-0.18787 -0.381119,-0.3182 -0.668128,-0.41574 -0.283675,-0.0964 -0.789695,-0.12199 -1.10461,-0.0558 -0.621875,0.13069 -1.077409,0.55797 -1.283075,1.20346 -0.09263,0.29062 -0.107773,0.92129 -0.03015,1.24746 0.165765,0.69466 0.669218,1.18071 1.34915,1.30229 0.249932,0.0447 0.824978,0.0155 1.041486,-0.0531 z m -21.5266903,-0.0171 c 0.037207,-0.0142 0.042981,-0.0859 0.042981,-0.51833 v -0.50178 H 8.3436752 c -0.1941196,0 -0.3313377,-0.0558 -0.3754733,-0.15264 -0.02117,-0.0459 -0.030792,-0.32203 -0.030792,-0.84438 v -0.77622 h 0.3000964 0.3000323 v -0.40922 -0.40921 H 8.2375063 7.9374099 v -0.57289 -0.5729 H 7.3099531 6.6824963 v 0.5729 0.57289 H 6.4505919 6.2186877 v 0.40921 0.40922 h 0.2299797 0.2299157 l 0.010264,1.0844 c 0.010906,1.17181 0.017321,1.22543 0.1672412,1.45204 0.074735,0.11297 0.2399232,0.2067 0.430129,0.24407 0.1372829,0.027 1.1162849,0.0377 1.1808845,0.0129 z m 6.2093913,-0.94509 c 0,-0.5139 0.01283,-1.02474 0.02694,-1.13518 0.04555,-0.35065 0.193221,-0.52211 0.449631,-0.52198 0.154282,9e-5 0.278414,0.085 0.349685,0.23929 0.05774,0.12463 0.05966,0.16535 0.06851,1.24055 l 0.009,1.11169 h 0.624185 0.624185 l 0.0077,-1.11248 0.0077,-1.1125 0.06819,-0.13238 c 0.09007,-0.17471 0.20849,-0.24147 0.402609,-0.2269 0.103732,0.008 0.163264,0.029 0.214969,0.0767 0.157297,0.14503 0.158901,0.158 0.168525,1.38223 l 0.009,1.12533 h 0.628035 0.628033 l -0.01154,-1.3163 c -0.01091,-1.23368 -0.0154,-1.32942 -0.06896,-1.52552 -0.07467,-0.27199 -0.149663,-0.41832 -0.288741,-0.56374 -0.218433,-0.22841 -0.517568,-0.32258 -0.946799,-0.2981 -0.201881,0.0115 -0.275847,0.029 -0.41762,0.0988 -0.19861,0.0977 -0.382081,0.25059 -0.492934,0.41056 -0.04234,0.0613 -0.08487,0.11155 -0.09411,0.11155 -0.009,0 -0.04619,-0.0552 -0.08192,-0.1228 -0.0857,-0.16155 -0.270138,-0.32852 -0.462012,-0.41831 -0.137987,-0.0646 -0.18732,-0.0725 -0.454892,-0.0726 -0.27604,-1.2e-4 -0.313183,0.006 -0.463744,0.0795 -0.105849,0.0514 -0.238448,0.15397 -0.375089,0.28996 l -0.21144,0.21038 v -0.24223 -0.24222 h -0.572931 -0.572864 v 1.80053 1.80053 h 0.613792 0.613793 v -0.93437 z m 5.838088,0 c 0,-0.5139 0.01283,-1.02474 0.02694,-1.13518 0.04555,-0.35065 0.193221,-0.52211 0.449631,-0.52198 0.154283,9e-5 0.278415,0.085 0.349685,0.23929 0.05774,0.12463 0.05966,0.16535 0.06845,1.24055 l 0.009,1.11169 h 0.624121 0.624185 l 0.0083,-1.11248 0.0077,-1.1125 0.06819,-0.13238 c 0.09,-0.17471 0.20849,-0.24147 0.40261,-0.2269 0.103668,0.008 0.163264,0.029 0.21497,0.0767 0.157297,0.14503 0.158836,0.158 0.168458,1.38223 l 0.009,1.12533 h 0.628035 0.62797 l -0.01154,-1.3163 c -0.0109,-1.23368 -0.0154,-1.32942 -0.06896,-1.52552 -0.07467,-0.27199 -0.1496,-0.41832 -0.288743,-0.56374 -0.19861,-0.2077 -0.464642,-0.30462 -0.83601,-0.30462 -0.103538,0 -0.249417,0.0131 -0.324152,0.0291 -0.202716,0.0435 -0.458805,0.21073 -0.628548,0.41054 -0.08141,0.0958 -0.155051,0.1772 -0.163777,0.18095 -0.009,0.004 -0.0449,-0.0484 -0.08089,-0.11598 -0.08571,-0.16156 -0.270076,-0.32852 -0.461949,-0.41832 -0.138053,-0.0646 -0.187384,-0.0725 -0.454893,-0.0726 -0.276102,-1.2e-4 -0.313247,0.006 -0.463807,0.0795 -0.105786,0.0514 -0.238448,0.15397 -0.375089,0.28996 l -0.211441,0.21038 v -0.24223 -0.24222 h -0.572929 -0.572865 v 1.80053 1.80053 h 0.613792 0.613857 v -0.93437 z m 5.810438,0.19096 c 0,-0.78494 0.02374,-1.00241 0.131381,-1.2111 0.06999,-0.13604 0.181675,-0.24074 0.318251,-0.29833 0.113804,-0.048 0.416274,-0.0642 0.525201,-0.0281 l 0.06158,0.0203 v -0.7282 -0.72821 l -0.225041,0.0124 c -0.275783,0.0153 -0.452391,0.0962 -0.616808,0.28303 -0.09886,0.11227 -0.144402,0.19249 -0.269945,0.47526 -0.02438,0.0545 -0.03079,-0.004 -0.03208,-0.29326 v -0.36148 h -0.572864 -0.572928 v 1.80054 1.80052 h 0.627456 0.627457 v -0.7434 z m -21.2945921,-0.021 c 0.4369937,-0.0425 0.8712932,-0.18834 1.0419337,-0.34991 0.1249653,-0.1183 0.1529992,-0.80919 0.049396,-1.21149 -0.1377954,-0.53401 -0.553427,-0.96834 -1.105507,-1.15511 -0.2966963,-0.1004 -0.6196946,-0.14746 -1.0118471,-0.14746 -0.5082649,0 -0.9145947,0.0972 -1.2023742,0.28764 l -0.1023844,0.0678 v -0.9143 -0.9143 H 1.8127613 0.9259436 l 0.00706,1.97105 0.00706,1.97103 0.1481237,0.075 0.1481236,0.075 h 0.7317016 0.7316373 v -0.73444 -0.73447 l 0.1102107,-0.0943 c 0.1495992,-0.12806 0.3810544,-0.191 0.7082224,-0.19261 0.5062763,-0.003 0.7551165,0.16574 0.8616065,0.5826 0.067101,0.26275 0.044905,0.86088 -0.039773,1.04947 -0.074543,0.16715 -0.1234257,0.22242 -0.262889,0.29717 l -0.1091202,0.0585 0.1773121,0.0158 c 0.2941305,0.0261 0.5987817,0.0252 0.8851499,-0.003 z"
       id="path1334" />
    <path
       d="m 6.5912237,294.04896 q 0,-0.57094 0.2220309,-1.015 0.2220308,-0.44758 0.6378948,-0.68723 0.4158641,-0.23966 0.9762219,-0.23966 0.856401,0 1.3498021,0.53217 0.4934016,0.52864 0.4934016,1.44143 v 0.0423 q 0,0.89164 -0.4969263,1.41676 -0.4934011,0.52159 -1.339228,0.52159 -0.8141046,0 -1.3075058,-0.48635 -0.4934011,-0.48987 -0.5321665,-1.32513 z m 1.187685,0.074 q 0,0.52864 0.1656419,0.77535 0.1656356,0.2467 0.4898701,0.2467 0.6343701,0 0.648469,-0.97623 v -0.11982 q 0,-1.02557 -0.6555184,-1.02557 -0.5955985,0 -0.6449379,0.88459 z"
       style="font-style:normal;font-variant:normal;font-weight:900;font-stretch:normal;font-size:medium;line-height:125%;font-family:Roboto;-inkscape-font-specification:'Roboto Heavy';letter-spacing:-0.418042px;word-spacing:0px;fill:none;fill-opacity:1;stroke:none;stroke-width:0.180443px;stroke-linecap:butt;stroke-linejoin:miter;stroke-opacity:1"
       id="path1189"
       inkscape:connector-curvature="0" />
    <path
       d="m 10.383781,294.04896 q 0,-0.57094 0.222024,-1.015 0.222031,-0.44758 0.637895,-0.68723 0.415871,-0.23966 0.976229,-0.23966 0.856401,0 1.349802,0.53217 0.493394,0.52864 0.493394,1.44143 v 0.0423 q 0,0.89164 -0.496919,1.41676 -0.493401,0.52159 -1.339228,0.52159 -0.814111,0 -1.307512,-0.48635 -0.493395,-0.48987 -0.532167,-1.32513 z m 1.187679,0.074 q 0,0.52864 0.165641,0.77535 0.165642,0.2467 0.489877,0.2467 0.63437,0 0.648469,-0.97623 v -0.11982 q 0,-1.02557 -0.655518,-1.02557 -0.595605,0 -0.644945,0.88459 z"
       style="font-style:normal;font-variant:normal;font-weight:900;font-stretch:normal;font-size:medium;line-height:125%;font-family:Roboto;-inkscape-font-specification:'Roboto Heavy';letter-spacing:-0.418042px;word-spacing:0px;fill:none;fill-opacity:1;stroke:none;stroke-width:0.180443px;stroke-linecap:butt;stroke-linejoin:miter;stroke-opacity:1"
       id="path1191"
       inkscape:connector-curvature="0" />
    <path
       d="m 15.709393,291.22953 v 0.94803 h 0.627327 v 0.82468 h -0.627327 v 1.74452 q 0,0.21498 0.07754,0.29957 0.07753,0.0846 0.306611,0.0846 0.176216,0 0.296043,-0.0212 v 0.84935 q -0.320709,0.10221 -0.669617,0.10221 -0.613222,0 -0.90574,-0.289 -0.292512,-0.28898 -0.292512,-0.87754 v -1.89254 h -0.486352 v -0.82468 h 0.486352 v -0.94803 z"
       style="font-style:normal;font-variant:normal;font-weight:900;font-stretch:normal;font-size:medium;line-height:125%;font-family:Roboto;-inkscape-font-specification:'Roboto Heavy';letter-spacing:-0.418042px;word-spacing:0px;fill:none;fill-opacity:1;stroke:none;stroke-width:0.180443px;stroke-linecap:butt;stroke-linejoin:miter;stroke-opacity:1"
       id="path1193"
       inkscape:connector-curvature="0" />
    <path
       d="m 19.241154,294.62694 q 0,-0.27137 -0.193839,-0.42292 -0.190309,-0.15154 -0.673136,-0.31366 -0.482827,-0.16211 -0.789438,-0.31366 -0.99737,-0.48987 -0.99737,-1.34627 0,-0.42644 0.246697,-0.75068 0.250222,-0.32776 0.704858,-0.5075 0.45463,-0.18326 1.022043,-0.18326 0.553309,0 0.990321,0.19736 0.440537,0.19736 0.683709,0.56389 0.24318,0.363 0.24318,0.83173 h -1.2335 q 0,-0.31366 -0.19384,-0.48635 -0.190308,-0.17269 -0.518067,-0.17269 -0.331284,0 -0.525118,0.14802 -0.190308,0.1445 -0.190308,0.37005 0,0.19736 0.211457,0.35948 0.211456,0.15859 0.743623,0.33128 0.532166,0.16916 0.874018,0.36652 0.831735,0.47931 0.831735,1.32161 0,0.67313 -0.5075,1.05728 -0.507494,0.38415 -1.392093,0.38415 -0.623796,0 -1.131296,-0.22203 -0.503969,-0.22556 -0.76124,-0.61323 -0.253747,-0.39119 -0.253747,-0.89869 h 1.240543 q 0,0.41235 0.211457,0.6097 0.214981,0.19384 0.694283,0.19384 0.306611,0 0.482827,-0.1304 0.179741,-0.13392 0.179741,-0.37357 z"
       style="font-style:normal;font-variant:normal;font-weight:900;font-stretch:normal;font-size:medium;line-height:125%;font-family:Roboto;-inkscape-font-specification:'Roboto Heavy';letter-spacing:-0.418042px;word-spacing:0px;fill:none;fill-opacity:1;stroke:none;stroke-width:0.180443px;stroke-linecap:butt;stroke-linejoin:miter;stroke-opacity:1"
       id="path1195"
       inkscape:connector-curvature="0" />
    <path
       d="m 22.409909,295.14501 q 0.250222,0 0.387673,-0.13393 0.137444,-0.13744 0.133919,-0.38062 h 1.113673 q 0,0.62732 -0.451105,1.02909 -0.447586,0.40177 -1.155969,0.40177 -0.831728,0 -1.31103,-0.52159 -0.479303,-0.5216 -0.479303,-1.44496 v -0.0493 q 0,-0.57799 0.211457,-1.01852 0.214982,-0.44406 0.616753,-0.68018 0.401765,-0.23966 0.951555,-0.23966 0.743624,0 1.18063,0.41234 0.437012,0.41235 0.437012,1.1172 h -1.113673 q 0,-0.29604 -0.144493,-0.45463 -0.144494,-0.15859 -0.387673,-0.15859 -0.461679,0 -0.539216,0.58855 -0.02469,0.18679 -0.02469,0.51455 0,0.57445 0.137444,0.79648 0.137451,0.22204 0.437012,0.22204 z"
       style="font-style:normal;font-variant:normal;font-weight:900;font-stretch:normal;font-size:medium;line-height:125%;font-family:Roboto;-inkscape-font-specification:'Roboto Heavy';letter-spacing:-0.418042px;word-spacing:0px;fill:none;fill-opacity:1;stroke:none;stroke-width:0.180443px;stroke-linecap:butt;stroke-linejoin:miter;stroke-opacity:1"
       id="path1198"
       inkscape:connector-curvature="0" />
    <path
       d="m 24.130189,294.04896 q 0,-0.57094 0.222024,-1.015 0.222031,-0.44758 0.637895,-0.68723 0.415871,-0.23966 0.976228,-0.23966 0.856402,0 1.349803,0.53217 0.493394,0.52864 0.493394,1.44143 v 0.0423 q 0,0.89164 -0.496919,1.41676 -0.493401,0.52159 -1.339228,0.52159 -0.814111,0 -1.307506,-0.48635 -0.493401,-0.48987 -0.532166,-1.32513 z m 1.187678,0.074 q 0,0.52864 0.165642,0.77535 0.165642,0.2467 0.489877,0.2467 0.63437,0 0.648469,-0.97623 v -0.11982 q 0,-1.02557 -0.655519,-1.02557 -0.595604,0 -0.644944,0.88459 z"
       style="font-style:normal;font-variant:normal;font-weight:900;font-stretch:normal;font-size:medium;line-height:125%;font-family:Roboto;-inkscape-font-specification:'Roboto Heavy';letter-spacing:-0.418042px;word-spacing:0px;fill:none;fill-opacity:1;stroke:none;stroke-width:0.180443px;stroke-linecap:butt;stroke-linejoin:miter;stroke-opacity:1"
       id="path1200"
       inkscape:connector-curvature="0" />
    <g
       transform="matrix(0.61490582,0,0,0.61490582,393.03936,128.92069)"
       id="g1210"
       style="fill:none;fill-opacity:1">
      <path
         sodipodi:nodetypes="cccaccccccscsccccccsscccc"
         inkscape:connector-curvature="0"
         id="path1206"
         d="m -634.78877,263.24078 -2.88353,0.001 v 6.42282 c 0,0 0.0589,0.0637 0.0942,0.0884 0.0387,0.0271 0.1266,0.0641 0.1266,0.0641 0.27064,0.13663 0.34488,0.14597 1.05627,0.13438 0.35428,-0.005 0.92927,-0.0103 1.27743,-0.0103 0.19048,2.3e-4 0.25726,0.003 0.35968,0.006 -0.009,-0.0114 -0.0212,-0.0217 -0.0305,-0.0336 v -2.36938 c 0.25096,-0.31956 0.70162,-0.47902 1.35186,-0.47902 0.49057,0 0.85289,0.12287 1.08675,0.36896 0.23956,0.24244 0.35917,0.65016 0.35917,1.22317 0,0.51789 -0.0458,0.88154 -0.13694,1.0909 -0.11743,0.27416 -0.33912,0.45879 -0.66199,0.55655 0.13589,0.0196 0.26257,0.0357 0.35708,0.0434 0.411,0.0334 1.10503,0.0295 1.49035,-0.008 0.675,-0.0663 1.2987,-0.27469 1.60869,-0.53742 0.0478,-0.0405 0.0981,-0.0736 0.11319,-0.0739 0.0795,-0.29057 0.12141,-0.6082 0.12141,-0.95602 v -0.0935 c 0,-0.96602 -0.31358,-1.71535 -0.94101,-2.24793 -0.62744,-0.5326 -1.51744,-0.7984 -2.6696,-0.7984 -0.84992,-3e-5 -1.54281,0.19558 -2.07896,0.58859 z"
         style="font-style:normal;font-variant:normal;font-weight:900;font-stretch:normal;font-size:medium;line-height:125%;font-family:Roboto;-inkscape-font-specification:'Roboto Heavy';letter-spacing:-0.418042px;word-spacing:0px;fill:none;fill-opacity:1;stroke:none;stroke-width:0.351531px;stroke-linecap:butt;stroke-linejoin:miter;stroke-opacity:1" />
      <path
         style="opacity:1;fill:none;fill-opacity:1;stroke:none;stroke-width:0.444921;stroke-miterlimit:4;stroke-dasharray:none;stroke-opacity:1"
         d="m -632.51668,271.80112 c -0.26275,-0.0234 -0.63854,-0.0748 -0.82239,-0.11242 l -0.12274,-0.0251 -0.0533,-0.1405 c -0.0395,-0.10401 -0.0682,-0.14634 -0.11047,-0.163 -0.34902,-0.13747 -0.54898,-0.17952 -0.85369,-0.17952 -0.15607,0 -0.40561,0.0495 -0.4443,0.0881 -0.0106,0.0106 -0.0468,0.0975 -0.0806,0.1932 l -0.0614,0.17401 -0.64122,0.006 c -0.71599,0.007 -0.99278,-0.0127 -1.28741,-0.0915 -0.3022,-0.0809 -0.47887,-0.18635 -0.53428,-0.31897 -0.0532,-0.1275 -0.0314,-0.62701 0.0389,-0.88857 l 0.0251,-0.0934 0.12688,0.064 c 0.27063,0.13662 0.34482,0.14606 1.0562,0.13447 0.35427,-0.005 0.92898,-0.0102 1.27714,-0.01 0.62995,7.6e-4 0.63461,7.7e-4 0.96434,0.0729 0.18223,0.0397 0.38713,0.0913 0.45533,0.11473 0.18415,0.0633 0.92539,0.19172 1.2655,0.21936 0.41101,0.0334 1.1052,0.0295 1.49051,-0.008 0.67502,-0.0663 1.29874,-0.27479 1.60875,-0.53756 0.048,-0.0407 0.0994,-0.074 0.11419,-0.074 0.0944,0 0.16264,0.5942 0.0901,0.78422 -0.0661,0.17304 -0.20993,0.27284 -0.62473,0.43344 -0.36617,0.14178 -0.77617,0.24497 -1.25492,0.31584 -0.33214,0.0492 -1.26969,0.0735 -1.62141,0.0421 z"
         id="path1208"
         inkscape:connector-curvature="0" />
    </g>
  </g>
</svg>
