<svg height="36" viewBox="0 0 2100 360" width="210" xmlns="http://www.w3.org/2000/svg" xmlns:xlink="http://www.w3.org/1999/xlink"><linearGradient id="a" gradientUnits="userSpaceOnUse" x1="303.407" x2="88.583" y1="323.81" y2="279.615"><stop offset="0" stop-color="#4f2682"/><stop offset="1" stop-color="#f62d57"/></linearGradient><linearGradient id="b" gradientUnits="userSpaceOnUse" x1="238.354" x2="58.775" y1="326.325" y2="226.001"><stop offset="0" stop-color="#fa2d38"/><stop offset="1" stop-color="#fe7444"/></linearGradient><linearGradient id="c" gradientUnits="userSpaceOnUse" x1="229.784" x2="98.022" y1="257.887" y2="190.174"><stop offset="0" stop-color="#fe7444"/><stop offset="1" stop-color="#ffc356"/></linearGradient><linearGradient id="d" gradientUnits="userSpaceOnUse" x1="240.246" x2="308.938" y1="21.404" y2="88.73"><stop offset="0" stop-color="#ffe67a"/><stop offset="1" stop-color="#ffc356"/></linearGradient><path d="m205.98 44.7c74.89 0 135.61 60.71 135.61 135.61 0 27.26-8.06 52.64-21.9 73.89l-15.46-3.12c-2.46-.7-5.35-1.15-8.25-1.32l15.83-14.15c1.3-1.15 1.59-3.01.71-4.51-5.53-9.47-11.05-18.95-16.58-28.42-.57-.99-1.47-1.59-2.6-1.76-1.12-.16-2.16.17-2.99.95l-5.38 5.06c-1.4-1.45-2.81-2.9-4.21-4.35-.7-.72-1.55-1.09-2.55-1.1s-1.86.33-2.58 1.04l-38.79 38.2c-5.2-1.31-12.47-3.62-16.28-7.45-1.03-10.65-4.88-20.16-11.88-28.23.21-.14.39-.24.59-.32 2.92 1.43 6.42.37 8.21-2.13.62-.12 1.23-.34 1.8-.66 1.14-.64 1.99-1.57 2.47-2.78.18-.44.25-.92.36-1.33 2.43.92 5.1 1.22 7.26-.58 2.76-2.29 2.53-6.4 2.26-9.63-.04-.47-.12-1.43.29-1.86 8.13-2.61 14.83-8.2 18.89-15.48.37.31.81.56 1.31.7 1.8.53 3.7-.4 4.38-2.15 1.74-4.48 2.46-9.25 2.17-13.97 1.6-.66 2.5-2.34 2.15-4.06-1.39-6.77-4.04-13.2-7.77-18.97.02-.49-.05-.99-.23-1.47-3.56-9.58-10.43-17.5-19.4-22.39-7.33-3.99-15.61-5.71-23.84-5 .8-1.43.54-3.23-.69-4.38-1.34-1.26-3.39-1.31-4.8-.12-.99.84-1.81 1.84-2.43 2.95-4.37-1.76-9.53-1.16-13.41 1.95-1.5 1.2-1.79 3.35-.68 4.91.11.16.24.31.37.44-6.78 3.44-12.58 8.69-16.7 15.3-6.66 10.69-8.19 23.84-4.16 35.76.12 7.09-4.24 12.89-9.4 17.37-5.4 2.11-10.43 4.98-14.92 8.68-21.47 17.69-24.8 49.37-23.83 75.32-.24 7.72 0 16.07 1.29 24.22-30.43-24.87-49.85-62.69-49.85-105.05 0-74.9 60.71-135.61 135.61-135.61z" fill="url(#a)"/><path d="m205.98 22.88c43.47 0 82.83 17.62 111.32 46.11s46.11 67.84 46.11 111.32c0 36.65-12.53 70.38-33.54 97.14l-51.29-12.56c-.67-.23-1.34-.44-2.02-.63l.13-.04 11.76-10.58c4.62-.73 10.76-.25 14.93.95l18.97 3.83c15.01-22.32 23.77-49.19 23.77-78.11 0-38.7-15.69-73.74-41.05-99.1s-60.39-41.05-99.09-41.05-73.74 15.69-99.1 41.05-41.05 60.4-41.05 99.1 15.69 73.73 41.05 99.09c5.95 5.96 12.44 11.38 19.38 16.18-2.92-9.41-4.16-20.89-3.72-34.45-1.67-43.95 10.67-70.89 37.02-80.85 7.76-6.58 11.46-13.63 11.11-21.17-3.9-11.04-2.56-23.26 3.63-33.2 6.2-9.93 16.57-16.52 28.2-17.88-2.97-3.53-8.09-4.32-11.99-1.86 4.05-3.24 9.93-2.76 13.4 1.11-.19-2.31.74-4.57 2.51-6.07-1.29 1.76-1.85 3.95-1.55 6.11 18.83-4.15 37.84 6.21 44.57 24.28-1.32-1.18-2.3-2.07-2.96-2.66 5.39 6.53 9.1 14.28 10.81 22.58-1.03-1.99-2.44-3.75-4.15-5.18 2.64 6.81 2.64 14.36 0 21.17.56-2.71.38-5.52-.52-8.14.03 1.46-.36 2.9-1.11 4.15-.24-.82-.56-1.62-.96-2.38-2.5 10.18-10.18 18.29-20.21 21.33-1.76.97-2.52 2.78-2.3 5.45.42 4.98.28 9.34-6.51 5.65-4.14 2.27-2.01 4.08-4.03 5.22-.77.44-1.73.38-2.45-.15.15 2.66-3.04 4.13-4.96 2.3-3.95.18-4.28 2.79-7.93 3.79-7.59 2.08-12.71-3.38-15.36-16.38.76 14.56 6.81 20.53 18.14 17.92 7.25 7.85 11.29 17.35 12.12 28.51l.05.06.76 5.66c.09-1.74.12-3.38.13-4.68 3.49 3.5 9.6 6.34 18.32 8.49l-6.51 7.91c-.12-.21-.25-.42-.39-.61l-5.54-4.07c0-.01-1.51-.73-2.64-1.17-.32-.55-.68-1.05-1.09-1.5-3.01-3.31-7.67-2.9-11.31-.57l-1.56 1.11-.22.19-.69.59c-10.55 8.37-21.8 8.81-34.6 11.38 16.28-.94 29.32-4.14 36.13-9.58 1.21-.95 1.49-1.39 3.19-2.24 2.57-1.28 5.41-1.38 7.32.71.55.61.79 1.11 1.16 1.84l.47.16c.98.32 7.45 4.51 7.58 4.59 1.66 1.16 2.1 5.63-1.59 5.11 1.87 2.41 1.48 4.93-2.19 5.46 1.98 2.06 1.25 4.08-1.64 4.98 1.26 2.4 1.8 3.95-1.16 4.7-1.68.25-3.15.14-4.42-.35l-.45-.08c-2.83.08-5.59.51-8.28 1.29-2.65.76-5.22 1.85-7.71 3.28-11.41 3.87-21.41 6.53-30.01 7.98-8.38 1.41-17.22 1.95-24.36.04-15.62-4.18-15.12-15.92-16.82-23.65-.21 3.55.28 9.57 1.43 12.97 5.27 15.51 24 15.69 40.13 12.97 8.76-1.47 18.92-4.17 30.48-8.1l2.83-1.47c1.53-.71 3.09-1.3 4.68-1.76 2.42-.69 4.91-1.09 7.47-1.18 1.62.57 3.45.7 5.48.38l.1-.02c1.91-.47 3.14-1.33 3.71-2.57.48-1.03.44-2.25-.12-3.63 1.5-1.51 2.55-3.31 2.29-5.31 1.81-.85 2.2-2.71 1.92-4.72.83-.3 1.34-.86 1.61-1.67.52-1.54-.11-3.57-1.01-5.18l48.18-47.43c11.71 12.11 20.5 21.19 26.35 27.24l-18.8-21.15 7.11-6.69c7.37 12.64 12.89 22.12 16.58 28.43l-34.57 30.9c-1.43-.36-2.99-.63-4.45-.81-11.87-1.48-22.96 2.89-36.28 10.54l6.59-2.26 3.59-1.24 2.29-.92c3.92-1.51 8.08-2.71 12.24-3.33l4.23-.45c4.44-.26 8.14.15 12.44 1.25l2.36.73 49.39 13.38c-3.15 3.79-6.46 7.44-9.94 10.92-28.49 28.49-67.85 46.11-111.32 46.11-43.48 0-82.83-17.62-111.32-46.11s-46.12-67.85-46.12-111.32c0-43.48 17.63-82.83 46.12-111.32s67.84-46.11 111.32-46.11z" fill="#141431"/><path d="m142.76 185.82c4.49-3.7 9.52-6.57 14.92-8.68 5.16-4.48 9.52-10.28 9.4-17.37-.96-2.83-1.6-5.72-1.93-8.64-33.37-3.82-64.99 3.13-94.31 40.62 1.46 17.45 6.22 33.96 13.66 48.9 13.28-10.5 26.22-18.19 38.86-23.66 3.55-12.06 9.58-23.08 19.4-31.17zm198.41-16.17c-31 11.59-61.43 8.45-90.97 1.67-4.1 6.77-10.55 11.95-18.28 14.43-1.13.71 1.57 8.08-2.55 11.49-2.16 1.8-4.83 1.5-7.26.58-.11.41-.18.89-.36 1.33-1.2 3-4.24 3.42-4.27 3.44-1.79 2.5-5.29 3.56-8.21 2.13-.2.08-.38.18-.59.32.86.99 1.67 2 2.43 3.03 16.24 2.65 32.09 6.89 47.67 11.05l16.85-16.6c1.44-1.42 3.73-1.39 5.13.06s2.81 2.9 4.21 4.35l5.38-5.06c1.7-1.6 4.42-1.21 5.59.81 5.43 9.31 10.85 18.62 16.29 27.92 6.47.72 12.92 1.07 19.35.91 6.45-15.8 10.01-33.08 10.01-51.2 0-3.59-.14-7.14-.42-10.66z" fill="url(#b)"/><path d="m258.67 154.85c.29 4.72-.43 9.49-2.17 13.97-.91 2.34-3.83 3.02-5.69 1.45-.2.35-.4.7-.61 1.05 29.54 6.78 59.97 9.92 90.97-1.67-1.13-14.56-4.56-28.48-9.93-41.38-71.93-7.76-157.81-98.47-252.82 5.89-5.21 14.41-8.05 29.94-8.05 46.15 0 3.85.16 7.67.47 11.44 29.32-37.49 60.94-44.44 94.31-40.62-1.08-9.38 1.01-18.97 6.09-27.12 4.12-6.61 9.92-11.86 16.7-15.3-1.48-1.51-1.36-4.02.31-5.35 3.88-3.11 9.04-3.71 13.41-1.95.62-1.11 1.44-2.11 2.43-2.95 3.06-2.59 7.41 1.05 5.49 4.5 18.87-1.63 36.61 9.55 43.24 27.39.18.48.25.98.23 1.47 3.73 5.77 6.38 12.2 7.77 18.97.35 1.72-.55 3.4-2.15 4.06z" fill="url(#c)"/><path d="m79.17 134.16c95.01-104.36 180.89-13.65 252.82-5.89-20.41-49.07-68.81-83.57-125.26-83.57-58.7 0-108.68 37.28-127.56 89.46z" fill="url(#d)"/><path d="m511 204.7q-19.25-.35-32.2 14.7v-44.45q8.75-7.7 24.5-10.5 7.35-1.4 14.7-1.4 19.25 0 32.2 8.4 12.95 8.4 20.3 25.55 6.65 15.05 6.65 32.55 0 28.35-11.9 47.95-12.25 20.65-37.45 28.7-11.9 3.85-32.2 3.85-24.15 0-36.4-5.25-27.65-11.55-40.6-43.05-8.75-21-8.4-55.3.35-39.55 15.05-63.35 24.5-39.55 73.85-39.55 20.65 0 35 4.2 33.25 9.8 37.8 50.75h-38.5q-2.45-9.8-11.9-13.3-7-2.8-20.3-2.8-13.65 0-19.95 2.8-25.2 11.55-29.05 53.2-2.45 26.6 6.65 47.95 10.15 23.8 39.2 23.45 16.45-.35 25.55-10.15 9.1-9.8 9.1-26.25 0-11.9-6.3-19.95-5.95-8.4-15.4-8.75zm285.6 32.2q-3.5 22.4-12.95 36.75-9.45 14-27.65 25.2-19.25 11.9-64.75 11.9-41.65 0-62.65-11.2-36.05-19.25-41.3-60.2-2.1-15.05.7-30.45 3.85-23.1 23.1-36.75 8.05-5.6 18.55-8.4 12.95-3.5 42.35-2.8 1.05-8.05-4.55-14.35-5.6-6.65-12.6-7-8.05-.35-14 4.9-5.6 5.25-5.25 14.35h-39.9q-.7-3.5-.7-7.7 0-19.6 15.05-34.65 14-14 44.8-12.95 28.7 1.05 37.45 17.5 8.75-13.3 26.6-16.45 25.9-4.55 44.1 4.55 9.45 4.9 15.75 16.45 6.65 11.55 6.65 24.85 0 4.2-.7 8.4h-39.55q1.05-9.1-4.2-14.35-4.9-5.25-13.3-4.9-7.7.35-12.95 6.65-5.25 5.95-4.2 14.7 33.95-.35 45.5 2.8 28.7 7.7 37.8 38.85 5.25 18.2 2.8 34.3zm-40.6-8.05q2.1-18.9-13.65-29.4-7.35-4.9-30.1-4.9h-42q-21 0-31.5 7.35-10.5 7-10.5 23.45 0 22.75 16.8 33.95 16.8 11.2 46.2 11.2 33.95 0 48.3-12.25 14.7-12.6 16.45-29.4zm99.75 65.8q-18.9 16.1-58.8 13.65v-38.5q29.05 0 40.25-16.8 7.7-11.55 9.8-25.55 1.4-8.05 1.4-28 0-33.6-17.15-50.05-9.45-9.1-34.65-9.1v-36.4q24.5.7 26.25.7 16.1.7 23.1 3.85 21 8.75 32.2 34.3 10.85 24.15 11.2 58.45.35 64.4-33.6 93.45zm117.25-104.3-33.95 27.65h13.3q-3.15 11.55-3.15 20.65 0 30.8 36.05 30.8 35.7 0 37.45-36.05 1.4-23.45-10.5-35-9.45-9.8-25.9-9.8-6.65 0-13.3 1.75zm-30.8-23.45h-33.6q-3.15-18.2 0-29.75 9.45-33.25 45.5-33.25 28 0 38.5 20.3 5.6-4.9 20.3-12.6 12.6-6.65 32.2-7.7 26.6-1.75 41.65 4.9 21.35 9.45 32.55 23.45 6.65 8.75 15.05 29.05 2.8 7 5.25 25.55 2.8 20.65 1.75 37.1-1.75 30.1-14 51.8-11.55 19.95-30.45 27.3-14.35 5.6-42 5.95v-38.5q14 0 22.4-4.2 23.1-12.25 22.05-53.2-1.05-43.05-18.9-58.8-11.9-10.5-32.9-10.5-9.45 0-17.15 2.45-10.85 3.5-21 11.55 9.8 0 18.2 3.15 19.95 7.7 28.7 29.4 8.75 21.35 8.75 38.5 0 5.6-.7 11.9-2.8 26.25-18.2 44.1-22.05 25.9-60.9 25.2-36.05-.35-57.05-17.85-17.5-14.35-17.5-38.85 0-9.45 4.2-16.1h-15.05v-33.25l63-52.85q-1.4-9.8-8.75-9.45-12.25.7-12.25 19.25 0 2.8.35 5.95zm147.7-52.5v-66.15h39.55v110.95q-9.1-12.6-18.2-25.2-12.6-16.45-21.35-19.6zm404.6 122.5q-3.5 22.4-12.95 36.75-9.45 14-27.65 25.2-19.25 11.9-64.75 11.9-41.65 0-62.65-11.2-36.05-19.25-41.3-60.2-2.1-15.05.7-30.45 3.85-23.1 23.1-36.75 8.05-5.6 18.55-8.4 12.95-3.5 42.35-2.8 1.05-8.05-4.55-14.35-5.6-6.65-12.6-7-8.05-.35-14 4.9-5.6 5.25-5.25 14.35h-39.9q-.7-3.5-.7-7.7 0-19.6 15.05-34.65 14-14 44.8-12.95 28.7 1.05 37.45 17.5 8.75-13.3 26.6-16.45 25.9-4.55 44.1 4.55 9.45 4.9 15.75 16.45 6.65 11.55 6.65 24.85 0 4.2-.7 8.4h-39.55q1.05-9.1-4.2-14.35-4.9-5.25-13.3-4.9-7.7.35-12.95 6.65-5.25 5.95-4.2 14.7 33.95-.35 45.5 2.8 28.7 7.7 37.8 38.85 5.25 18.2 2.8 34.3zm-40.6-8.05q2.1-18.9-13.65-29.4-7.35-4.9-30.1-4.9h-42q-21 0-31.5 7.35-10.5 7-10.5 23.45 0 22.75 16.8 33.95 16.8 11.2 46.2 11.2 33.95 0 48.3-12.25 14.7-12.6 16.45-29.4zm55.65-32.55q16.1-38.5 44.8-56.7h-49.7v-32.9h105v30.45q-12.6 8.75-27.65 23.8-16.45 15.75-24.15 28-15.4 24.15-15.4 49.35 0 30.45 12.6 31.5 14.35 1.4 17.15-15.4 2.45-13.3-2.1-30.1h38.5q4.9 16.1 2.8 37.1-3.15 30.45-24.15 42.7-13.3 7.7-40.6 5.6-18.55-1.4-30.1-12.95-15.4-15.4-15.4-51.45 0-29.05 8.4-49zm173.6-29.05q27.3 0 44.45 16.8 18.2 18.2 18.2 49.7 0 32.55-18.9 50.4-16.8 16.1-44.1 16.1-28.35 0-45.15-16.8-17.85-17.85-17.85-49.7 0-32.9 18.55-50.75 16.8-15.75 44.8-15.75zm-22.4 66.85q0 30.1 22.4 30.1 22.4 0 22.4-30.1 0-29.4-22.4-29.4-22.4 0-22.4 29.4zm91.7 1.75q0-26.95 18.2-35.7h-25.2v-32.55h87.85q0-10.15-6.3-14-4.55-2.8-11.55-2.45-6.3.35-9.8 2.8-6.65 4.55-6.3 11.2-8.75.35-39.55 0-.7-8.05 2.1-16.1 6.3-18.55 24.15-27.65 11.2-5.6 30.8-5.6 23.1 0 35.7 10.15 12.6 10.15 17.85 33.6.7 3.15 2.1 42.35h-33.95q-16.8 0-29.05 7-12.25 7-13.65 18.9-2.45 18.9 10.15 29.75 14 12.25 46.55 12.25 45.85 0 56.7-40.95 6.65-24.85 5.25-50.05-2.8-52.5-20.3-72.8-11.9-13.65-43.05-15.75-18.9-1.4-32.2 3.15-17.5 5.95-22.05 18.55-31.5.35-40.25 0 5.25-33.95 38.5-50.05 22.05-10.5 51.8-11.2 39.2-.7 60.2 11.2 19.95 11.2 33.6 37.1 13.65 25.55 16.1 70.7 2.8 49-12.95 87.15-12.95 31.5-47.95 45.85-15.75 6.65-52.15 6.65-25.55 0-37.1-3.5-54.25-15.4-54.25-70zm266 58.8q-18.9 16.1-58.8 13.65v-38.5q29.05 0 40.25-16.8 7.7-11.55 9.8-25.55 1.4-8.05 1.4-28 0-33.6-17.15-50.05-9.45-9.1-34.65-9.1v-36.4q24.5.7 26.25.7 16.1.7 23.1 3.85 21 8.75 32.2 34.3 10.85 24.15 11.2 58.45.35 64.4-33.6 93.45z" fill="#141331"/></svg>