<svg version="1.2" baseProfile="tiny-ps" xmlns="http://www.w3.org/2000/svg" viewBox="0 0 840 841" width="36" height="36"><title>shutterstock_1605909904-ai</title><defs><linearGradient id="grd1" gradientUnits="userSpaceOnUse"  x1="679.55" y1="803.163" x2="106.687" y2="685.308"><stop offset="0" stop-color="#4f2682"  /><stop offset="1" stop-color="#f62d57"  /></linearGradient><linearGradient id="grd2" gradientUnits="userSpaceOnUse"  x1="506.077" y1="809.869" x2="27.198" y2="542.34"><stop offset="0" stop-color="#fa2d38"  /><stop offset="1" stop-color="#fe7444"  /></linearGradient><linearGradient id="grd3" gradientUnits="userSpaceOnUse"  x1="483.223" y1="627.368" x2="131.858" y2="446.801"><stop offset="0" stop-color="#fe7444"  /><stop offset="1" stop-color="#ffc356"  /></linearGradient><linearGradient id="grd4" gradientUnits="userSpaceOnUse"  x1="511.121" y1="-3.254" x2="694.3" y2="176.283"><stop offset="0" stop-color="#ffe67a"  /><stop offset="1" stop-color="#ffc356"  /></linearGradient></defs><style>tspan { white-space:pre }.shp0 { fill: url(#grd1) } .shp1 { fill: #141431 } .shp2 { fill: url(#grd2) } .shp3 { fill: url(#grd3) } .shp4 { fill: url(#grd4) } </style><g id="Layer 1"><path id="&lt;Path&gt;" class="shp0" d="M419.73 58.86C619.45 58.86 781.36 220.77 781.36 420.49C781.36 493.18 759.89 560.86 722.97 617.55L681.75 609.21C675.18 607.36 667.48 606.16 659.75 605.7L701.97 567.97C705.41 564.89 706.19 559.93 703.86 555.94C689.1 530.69 674.38 505.41 659.64 480.14C658.11 477.52 655.71 475.9 652.71 475.46C649.71 475.03 646.95 475.9 644.74 477.98L630.38 491.48C626.64 487.61 622.9 483.75 619.16 479.88C617.3 477.96 615.02 476.98 612.36 476.95C609.69 476.91 607.39 477.84 605.49 479.71L502.03 581.59C488.17 578.11 468.79 571.94 458.63 561.73C458.62 561.72 458.62 561.72 458.61 561.71C455.89 533.31 445.6 507.96 426.96 486.44C427.5 486.07 428 485.8 428.51 485.59C436.3 489.41 445.63 486.57 450.41 479.9C452.07 479.59 453.7 479.01 455.22 478.14C458.25 476.43 460.51 473.97 461.81 470.73C462.27 469.57 462.47 468.28 462.76 467.18C469.23 469.65 476.35 470.44 482.12 465.65C489.48 459.55 488.87 448.56 488.16 439.97C488.05 438.7 487.84 436.15 488.91 435.01C510.59 428.05 528.47 413.14 539.29 393.72C540.28 394.55 541.46 395.2 542.78 395.59C547.59 397.01 552.66 394.53 554.47 389.85C559.11 377.9 561.03 365.19 560.24 352.61C564.51 350.85 566.93 346.35 565.98 341.78C562.27 323.73 555.22 306.57 545.26 291.18C545.33 289.88 545.13 288.55 544.65 287.26C535.15 261.72 516.85 240.61 492.92 227.57C473.36 216.91 451.29 212.34 429.35 214.23C431.47 210.41 430.78 205.61 427.5 202.55C423.92 199.2 418.46 199.06 414.72 202.23C412.06 204.47 409.87 207.15 408.22 210.1C396.58 205.42 382.82 206.99 372.47 215.29C368.48 218.49 367.68 224.23 370.65 228.39C370.96 228.82 371.29 229.21 371.64 229.57C353.57 238.74 338.09 252.74 327.11 270.35C309.34 298.87 305.28 333.94 316 365.73C316.34 384.62 304.69 400.08 290.95 412.04C276.54 417.66 263.13 425.32 251.17 435.18C193.91 482.37 185.03 566.85 187.62 636.04C186.96 656.63 187.6 678.88 191.05 700.62C109.92 634.31 58.11 533.45 58.11 420.49C58.11 220.77 220.01 58.86 419.73 58.86Z" /><path id="&lt;Path&gt;" class="shp1" d="M419.73 0.67C535.66 0.67 640.61 47.66 716.59 123.64C792.56 199.61 839.55 304.56 839.55 420.49C839.55 518.24 806.14 608.18 750.12 679.53L613.35 646.05C611.56 645.44 609.76 644.87 607.96 644.36L608.32 644.27L639.67 616.05C651.99 614.09 668.35 615.37 679.48 618.57L730.05 628.79C770.09 569.28 793.45 497.61 793.45 420.49C793.45 317.29 751.62 223.86 683.99 156.23C616.36 88.6 522.93 46.77 419.73 46.77C316.53 46.77 223.1 88.6 155.48 156.23C87.85 223.86 46.02 317.29 46.02 420.49C46.02 523.69 87.85 617.12 155.48 684.75C171.35 700.62 188.65 715.07 207.16 727.9C199.37 702.8 196.07 672.17 197.25 636.02C192.8 518.83 225.7 446.96 295.96 420.43C316.65 402.88 326.52 384.06 325.57 363.96C315.19 334.51 318.76 301.94 335.27 275.44C351.79 248.94 379.46 231.39 410.47 227.74C402.54 218.33 388.88 216.22 378.48 222.8C389.29 214.14 404.98 215.44 414.22 225.76C413.71 219.6 416.21 213.57 420.93 209.57C417.47 214.25 415.98 220.1 416.78 225.86C467 214.8 517.7 242.42 535.63 290.62C532.12 287.46 529.49 285.09 527.74 283.51C542.11 300.93 552 321.6 556.56 343.72C553.83 338.43 550.07 333.73 545.5 329.9C552.56 348.06 552.56 368.21 545.5 386.37C547 379.14 546.52 371.64 544.12 364.65C544.2 368.55 543.17 372.38 541.16 375.72C540.53 373.52 539.67 371.4 538.6 369.39C531.94 396.54 511.45 418.15 484.7 426.25C480.02 428.83 477.97 433.68 478.57 440.78C479.68 454.08 479.31 465.69 461.2 455.86C450.18 461.9 455.85 466.73 450.48 469.78C448.41 470.95 445.84 470.8 443.93 469.39C444.34 476.46 435.83 480.4 430.7 475.51C420.18 475.99 419.3 482.96 409.55 485.63C389.32 491.16 375.67 476.6 368.61 441.94C370.63 480.75 386.75 496.68 416.98 489.72C436.3 510.66 447.08 536 449.3 565.74L449.43 565.9L451.44 580.99C451.69 576.37 451.78 572 451.81 568.51C461.11 577.87 477.39 585.42 500.66 591.16L483.3 612.25C482.96 611.69 482.62 611.15 482.26 610.64L467.49 599.77C467.48 599.76 463.45 597.82 460.43 596.67C459.59 595.18 458.63 593.84 457.54 592.66C449.52 583.83 437.08 584.92 427.38 591.14L423.23 594.09L423.23 594.1L422.62 594.59L422.62 594.59L420.79 596.18C392.66 618.5 362.64 619.68 328.52 626.53C371.94 624.01 406.7 615.49 424.87 600.96C428.08 598.45 428.84 597.26 433.36 595.01C440.22 591.6 447.81 591.32 452.88 596.9C454.35 598.52 455.01 599.85 455.98 601.81L457.23 602.22C459.86 603.09 477.12 614.26 477.46 614.48C481.89 617.56 483.05 629.47 473.22 628.1C478.2 634.51 477.15 641.24 467.37 642.65C472.66 648.16 470.69 653.54 463 655.93C466.35 662.35 467.8 666.48 459.92 668.48C455.43 669.15 451.5 668.83 448.12 667.53L446.91 667.32C439.36 667.55 432 668.69 424.83 670.75C417.78 672.79 410.92 675.71 404.27 679.51C373.85 689.84 347.17 696.93 324.24 700.79C301.91 704.56 278.33 706 259.3 700.9C217.64 689.74 218.97 658.43 214.44 637.82C213.89 647.29 215.18 663.36 218.26 672.43C232.3 713.77 282.25 714.26 325.28 707.01C348.62 703.08 375.71 695.88 406.55 685.4L414.1 681.49C418.17 679.59 422.34 678.02 426.56 676.8C433.02 674.94 439.67 673.88 446.5 673.64C450.82 675.16 455.69 675.51 461.1 674.67L461.38 674.62C466.46 673.34 469.76 671.05 471.27 667.76C472.54 664.99 472.43 661.76 470.95 658.07C474.96 654.05 477.74 649.24 477.05 643.9C481.87 641.66 482.91 636.69 482.19 631.31C484.38 630.53 485.76 629.02 486.48 626.86C487.85 622.76 486.17 617.35 483.77 613.06L612.24 486.57C643.48 518.86 666.91 543.07 682.52 559.22L632.39 502.8L651.33 484.99C670.99 518.68 685.73 543.95 695.56 560.8L603.36 643.19C599.56 642.23 595.4 641.52 591.5 641.03C559.85 637.09 530.29 648.74 494.77 669.13L512.32 663.11L521.91 659.81L528.02 657.34C538.48 653.33 549.57 650.12 560.66 648.46L571.92 647.28C583.78 646.58 593.63 647.66 605.12 650.59L611.39 652.54L743.1 688.23C734.71 698.35 725.87 708.06 716.59 717.34C640.61 793.31 535.66 840.3 419.73 840.3C303.81 840.3 198.85 793.31 122.88 717.34C46.91 641.37 -0.08 536.41 -0.08 420.49C-0.08 304.56 46.91 199.61 122.88 123.64C198.85 47.66 303.81 0.67 419.73 0.67Z" /><path id="&lt;Compound Path&gt;" class="shp2" d="M251.17 435.18C263.13 425.32 276.54 417.66 290.95 412.04C304.69 400.08 316.34 384.62 316 365.73C313.46 358.19 311.75 350.46 310.85 342.69C221.88 332.49 137.57 351.04 59.38 451C63.26 497.53 75.97 541.56 95.8 581.41C131.22 553.41 165.72 532.91 199.43 518.32C208.9 486.16 224.97 456.77 251.17 435.18ZM780.26 392.07C697.59 422.96 616.45 414.62 537.66 396.52C526.72 414.57 509.53 428.39 488.91 435.01C485.92 436.9 493.1 456.54 482.12 465.65C476.35 470.44 469.23 469.65 462.76 467.18C462.47 468.28 462.27 469.57 461.81 470.73C458.59 478.74 450.49 479.85 450.41 479.9C445.63 486.57 436.3 489.41 428.51 485.59C428 485.8 427.5 486.07 426.96 486.44C429.24 489.08 431.4 491.77 433.43 494.52C476.73 501.59 518.99 512.9 560.54 523.98L605.49 479.71C609.32 475.94 615.42 476.01 619.16 479.88C622.9 483.75 626.64 487.61 630.38 491.48L644.74 477.98C649.27 473.72 656.51 474.77 659.64 480.14C674.12 504.96 688.58 529.8 703.09 554.61C720.33 556.53 737.52 557.45 754.68 557.03C771.88 514.9 781.36 468.8 781.36 420.49C781.36 410.92 780.99 401.45 780.26 392.07Z" /><path id="&lt;Path&gt;" class="shp3" d="M560.24 352.61C561.03 365.19 559.11 377.9 554.47 389.85C552.05 396.1 544.26 397.92 539.29 393.72C538.76 394.66 538.22 395.6 537.66 396.52C616.45 414.62 697.59 422.96 780.26 392.07C777.24 353.24 768.09 316.14 753.77 281.71C561.95 261.03 332.94 19.13 79.58 297.43C65.69 335.84 58.11 377.28 58.11 420.49C58.11 430.76 58.54 440.94 59.38 451C137.57 351.04 221.88 332.49 310.85 342.69C307.97 317.67 313.55 292.11 327.11 270.35C338.09 252.74 353.57 238.74 371.64 229.57C367.68 225.54 368.02 218.85 372.47 215.29C382.82 206.99 396.58 205.42 408.22 210.1C409.87 207.15 412.06 204.47 414.72 202.23C422.87 195.33 434.47 205.02 429.35 214.23C479.68 209.89 526.97 239.71 544.65 287.26C545.13 288.55 545.33 289.88 545.26 291.18C555.22 306.57 562.27 323.73 565.98 341.78C566.93 346.35 564.51 350.85 560.24 352.61Z" /><path id="&lt;Path&gt;" class="shp4" d="M81.58 297.43C334.94 19.13 563.95 261.03 755.77 281.71C701.35 150.87 572.29 58.86 421.73 58.86C265.22 58.86 131.93 158.29 81.58 297.43Z" /></g></svg>