<?xml version="1.0" encoding="UTF-8" standalone="no"?>
<svg
   xmlns:dc="http://purl.org/dc/elements/1.1/"
   xmlns:cc="http://creativecommons.org/ns#"
   xmlns:rdf="http://www.w3.org/1999/02/22-rdf-syntax-ns#"
   xmlns:svg="http://www.w3.org/2000/svg"
   xmlns="http://www.w3.org/2000/svg"
   xmlns:sodipodi="http://sodipodi.sourceforge.net/DTD/sodipodi-0.dtd"
   xmlns:inkscape="http://www.inkscape.org/namespaces/inkscape"
   width="191.733"
   height="27"
   viewBox="0 0 50.729355 7.1437502"
   version="1.1"
   id="svg1323"
   inkscape:version="1.0.1 (c497b03c, 2020-09-10)"
   sodipodi:docname="logo.svg">
  <defs
     id="defs1317" />
  <sodipodi:namedview
     id="base"
     pagecolor="#ffffff"
     bordercolor="#666666"
     borderopacity="1.0"
     inkscape:pageopacity="0.0"
     inkscape:pageshadow="2"
     inkscape:zoom="4"
     inkscape:cx="121.55219"
     inkscape:cy="13.677944"
     inkscape:document-units="px"
     inkscape:current-layer="layer1"
     showgrid="false"
     units="px"
     inkscape:window-width="1680"
     inkscape:window-height="948"
     inkscape:window-x="0"
     inkscape:window-y="25"
     inkscape:window-maximized="1"
     inkscape:document-rotation="0" />
  <metadata
     id="metadata1320">
    <rdf:RDF>
      <cc:Work
         rdf:about="">
        <dc:format>image/svg+xml</dc:format>
        <dc:type
           rdf:resource="http://purl.org/dc/dcmitype/StillImage" />
        <dc:title></dc:title>
      </cc:Work>
    </rdf:RDF>
  </metadata>
  <g
     inkscape:label="Ebene 1"
     inkscape:groupmode="layer"
     id="layer1"
     transform="translate(0,-289.85624)">
    <g
       id="g1369"
       transform="matrix(0.64328614,0,0,0.64328614,773.96427,46.07546)"
       style="fill:#212529;fill-opacity:1">
      <path
         style="fill:#212529;fill-opacity:1;stroke:none;stroke-width:2.10191;stroke-linecap:round;stroke-linejoin:round;stroke-miterlimit:4;stroke-dasharray:none;stroke-opacity:1"
         d="m -4524.0216,1474.2253 c -0.1576,-0.039 -1.0605,-0.1746 -2.0064,-0.302 -0.9458,-0.1274 -2.1578,-0.3941 -2.6932,-0.5926 -0.9361,-0.347 -1.0023,-0.3479 -1.7198,-0.024 -1.0997,0.4967 -7.9698,0.4718 -9.9182,-0.036 -2.986,-0.7782 -4.9637,-2.2333 -5.9572,-4.383 -0.483,-1.0453 -0.5429,-1.3962 -0.5715,-3.3493 -0.017,-1.1999 -0.1284,-2.5327 -0.2464,-2.9618 -0.1515,-0.5506 -0.1983,-4.5457 -0.1592,-13.5826 l 0.055,-12.8026 0.4467,-0.8599 c 0.5952,-1.1459 1.3861,-1.9452 2.4764,-2.5024 0.8894,-0.4546 0.9652,-0.4599 7.3719,-0.5144 7.5963,-0.065 7.7965,-0.031 9.3945,1.5668 1.303,1.3029 1.6163,2.2518 1.6163,4.8958 v 2.0401 l 2.8185,0.1057 c 4.9046,0.184 8.7949,1.3473 11.5576,3.4562 l 0.8768,0.6692 0.3513,-0.3907 c 0.5455,-0.6069 2.5227,-1.9592 3.8007,-2.5995 2.2029,-1.1038 4.4436,-1.5784 7.4625,-1.5806 4.2362,0 6.9821,0.9377 10.8667,3.7234 0.1681,0.1206 0.5055,-0.036 1.08,-0.5024 1.7337,-1.4061 4.3772,-2.5676 6.8745,-3.0204 2.6181,-0.4748 6.6349,-0.1524 9.1745,0.7364 l 1.0733,0.3756 0.094,-1.6545 c 0.1149,-2.0154 0.6627,-3.2377 1.9644,-4.3835 1.4451,-1.2721 1.9942,-1.3762 7.2596,-1.3762 5.4882,0 5.9138,0.093 7.5178,1.6469 l 1.0469,1.0139 0.6811,-0.598 c 2.1032,-1.8467 5.0872,-3.2898 8.0393,-3.888 2.1486,-0.4353 6.4504,-0.2954 8.7774,0.2856 3.0819,0.7695 6.1828,2.5328 8.1867,4.6554 1.0305,1.0916 2.9164,3.8648 2.9164,4.2887 0,0.322 0.079,0.3095 1.4182,-0.2234 1.7899,-0.7124 3.9456,-1.0811 6.3207,-1.0811 2.5596,0 4.5691,0.3763 6.771,1.2681 1.4202,0.5751 1.6481,0.6198 1.9178,0.3757 0.1683,-0.1523 0.7126,-0.4568 1.2095,-0.6766 0.8475,-0.3749 1.2135,-0.398 5.9166,-0.373 4.0758,0.022 5.2275,-0.031 6.1596,-0.2819 2.3171,-0.6235 5.8077,-0.3184 8.1443,0.7119 l 1.0277,0.4532 0.9948,-0.4373 c 3.0554,-1.3432 7.5007,-1.4186 10.4708,-0.1776 0.5923,0.2475 0.767,0.2467 1.4819,-0.01 0.6502,-0.2305 1.8119,-0.2831 5.8742,-0.2657 4.161,0.018 5.234,-0.033 6.0191,-0.2842 2.0614,-0.66 6.0471,-0.2785 8.1545,0.7806 l 0.8933,0.4489 1.0175,-0.4647 c 1.6633,-0.7596 3.1625,-1.066 5.2213,-1.0671 3.7222,0 5.4105,0.5886 8.9519,3.131 0.1356,0.097 0.7247,-0.1742 1.5351,-0.7076 1.459,-0.9605 3.8247,-1.8884 5.665,-2.2221 1.7136,-0.3108 5.0649,-0.263 6.6154,0.094 1.4676,0.3381 2.9587,0.8635 4.0932,1.4423 l 0.7601,0.3877 0.6295,-0.4801 c 1.2884,-0.9828 1.9241,-1.0779 7.0986,-1.062 3.7568,0.011 5.0034,-0.048 5.8296,-0.2798 1.371,-0.3841 4.21,-0.392 5.4628,-0.015 0.5348,0.1608 1.3063,0.5346 1.7144,0.8305 l 0.7421,0.5381 1.3848,-0.5377 c 2.0686,-0.8033 3.8932,-1.1237 6.3901,-1.1221 4.2932,0 7.5634,1.1121 10.9654,3.7202 0.1473,0.1129 0.5685,-0.1014 1.2351,-0.6283 2.0924,-1.654 5.1056,-2.7855 8.0972,-3.0408 8.0289,-0.6851 14.7418,3.831 17.1122,11.5123 0.9185,2.9764 1.2432,7.1685 0.6985,9.0177 -0.1506,0.5113 -0.4188,1.4878 -0.5961,2.1701 -0.887,3.4144 -3.0931,6.4177 -6.1476,8.3691 -5.5756,3.5622 -14.3051,3.2866 -19.4137,-0.6128 l -0.8936,-0.6822 -0.9076,0.6965 c -1.2302,0.9439 -3.6403,2.0751 -5.4937,2.5787 -2.2871,0.6213 -6.9852,0.6242 -9.2572,0.01 -2.5486,-0.6937 -4.8173,-1.9346 -6.806,-3.7226 l -0.9612,-0.8642 -0.3179,0.8952 c -0.4249,1.1962 -1.4056,2.303 -2.6528,2.9938 l -1.024,0.5672 h -5.1692 -5.1692 l -1.2393,-0.629 -1.2393,-0.6291 -1.0609,0.4857 c -2.2321,1.0219 -3.8195,1.3125 -7.2368,1.3247 -3.4489,0.012 -4.3662,-0.1525 -7.0499,-1.2665 -1.132,-0.4699 -1.474,-0.5418 -1.7198,-0.3614 -0.1687,0.1239 -0.6936,0.4166 -1.1666,0.6504 -0.8072,0.3991 -1.1507,0.4289 -5.6068,0.4852 -3.9563,0.05 -4.911,0.01 -5.7324,-0.2486 -0.8956,-0.2805 -1.062,-0.2816 -1.8217,-0.012 -1.2046,0.427 -9.2541,0.4288 -10.69,0 -0.8916,-0.2647 -1.0769,-0.2647 -1.8567,0 -1.2573,0.4269 -18.0693,0.4381 -19.5007,0.013 -0.8329,-0.2474 -1.0584,-0.2474 -1.8803,0 -1.3318,0.4008 -9.3932,0.4015 -10.7242,9e-4 -0.8239,-0.2479 -1.0464,-0.2465 -1.9364,0.012 -0.8109,0.2357 -1.9215,0.2807 -5.7396,0.2324 l -4.7341,-0.06 -1.1285,-0.6188 -1.1285,-0.6187 -1.6477,0.6592 c -5.5387,2.216 -12.2722,1.4031 -16.7394,-2.0208 -1.1108,-0.8514 -1.301,-0.9358 -1.6055,-0.7121 -3.9773,2.9224 -6.5347,3.8925 -10.8078,4.0997 -3.5826,0.1737 -6.703,-0.4488 -9.7234,-1.9396 l -1.3158,-0.6495 -0.781,0.6685 c -1.2657,1.0834 -2.3133,1.2831 -6.8104,1.2984 -3.1065,0.011 -4.1866,-0.055 -5.2188,-0.3153 -1.6025,-0.4047 -3.2189,-1.1544 -4.0365,-1.8723 l -0.6169,-0.5416 -0.6917,0.47 c -1.279,0.8691 -3.2985,1.781 -4.9241,2.2235 -1.3838,0.3767 -2.0499,0.4374 -4.6712,0.4262 -2.7614,-0.012 -3.2229,-0.064 -4.7677,-0.5341 -1.9764,-0.602 -4.3355,-1.7769 -5.3788,-2.6787 l -0.724,-0.6259 -0.966,0.7331 c -1.4187,1.0767 -3.2387,1.9805 -5.177,2.5708 -1.5474,0.4713 -2.0077,0.5229 -4.77,0.5348 -3.6029,0.015 -5.2458,-0.3342 -7.9412,-1.6904 l -1.6356,-0.8229 -0.753,0.3872 c -2.9416,1.5126 -6.318,2.2305 -10.9759,2.3338 -1.9443,0.043 -3.664,0.047 -3.8217,0.01 z m 5.6612,-5.6415 c 3.7444,-0.3378 7.2499,-1.5569 7.7166,-2.6836 0.231,-0.5577 0.1665,-2.2431 -0.1025,-2.6784 -0.07,-0.1135 -0.3388,-0.032 -0.6676,0.2018 -1.0116,0.7203 -2.5603,1.3085 -4.2956,1.6313 -2.3553,0.4382 -7.6456,0.2954 -10.1274,-0.2734 -0.9458,-0.2168 -2.2786,-0.5226 -2.9618,-0.6796 -0.9201,-0.2114 -2.4866,-0.2871 -6.0435,-0.2921 -3.8113,-0.01 -4.9421,-0.065 -5.4834,-0.2916 -0.3751,-0.1567 -0.7244,-0.2161 -0.7764,-0.1321 -0.052,0.084 -0.1538,0.807 -0.2262,1.6063 -0.1253,1.3825 -0.1083,1.4769 0.348,1.9332 0.8199,0.8199 2.1589,1.0813 5.5383,1.0813 h 3.0325 l 0.2013,-0.5773 c 0.1107,-0.3175 0.3585,-0.6614 0.5507,-0.7643 0.5317,-0.2846 2.4757,-0.2235 3.6102,0.1135 0.8083,0.24 1.0536,0.4108 1.219,0.8489 0.186,0.4927 0.3344,0.5686 1.459,0.7463 2.6798,0.4234 4.1527,0.4675 7.0088,0.2098 z m 82.5519,-0.2998 c 3.1225,-0.7969 5.845,-3.0382 7.2998,-6.0096 0.7944,-1.6226 1.5572,-4.165 1.5572,-5.1898 v -0.5427 h -3.9883 -3.9883 l -0.1286,0.804 c -0.2874,1.7979 -1.3324,3.3841 -2.5807,3.9175 -0.9529,0.4071 -2.8944,0.3451 -3.8095,-0.1217 -1.0106,-0.5156 -1.997,-1.7109 -2.4168,-2.9286 -0.5179,-1.5023 -0.6297,-6.4976 -0.1903,-8.4989 0.8214,-3.7404 2.8165,-5.3517 5.721,-4.6204 1.5573,0.3922 2.6761,1.6888 3.1784,3.6836 l 0.223,0.8856 h 3.8945 3.8946 v -0.5427 c 0,-1.0235 -0.7625,-3.5663 -1.5494,-5.1674 -1.398,-2.8443 -3.8852,-4.8166 -7.1449,-5.6656 -1.8828,-0.4904 -4.9362,-0.5807 -6.6606,-0.1971 -5.1563,1.1472 -8.6445,5.0522 -9.8878,11.0691 -0.5181,2.5077 -0.4264,6.7644 0.2004,9.2935 1.6583,6.692 6.8321,10.5731 13.6056,10.2061 0.9089,-0.049 2.1558,-0.2179 2.7707,-0.3749 z m -60.8076,0.018 c 4.1295,-0.7901 6.9494,-3.6106 7.8471,-7.8487 0.3659,-1.727 0.363,-5.0061 -0.01,-6.5701 -0.9631,-4.0857 -3.9812,-6.9954 -7.9505,-7.6649 -2.0156,-0.34 -4.7114,-0.1489 -6.3498,0.4501 -4.3561,1.5926 -6.495,5.1569 -6.498,10.8286 0,2.5208 0.2964,4.093 1.0655,5.6254 2.0631,4.1113 6.7668,6.1601 11.8913,5.1796 z m 23.0404,-0.2106 c 1.7149,-0.5098 3.1918,-1.4057 4.3125,-2.6162 1.974,-2.1322 2.784,-4.5234 2.7999,-8.2649 0.011,-2.6643 -0.3047,-4.1219 -1.3089,-6.0374 -1.6717,-3.189 -4.6054,-4.9112 -8.6803,-5.0956 -3.4778,-0.1575 -5.8207,0.6551 -8.0753,2.8009 -1.2801,1.2183 -2.235,3.0054 -2.719,5.089 -0.4067,1.7509 -0.4097,5.1264 -0.01,6.8521 0.9087,3.8844 3.759,6.6577 7.6846,7.4772 1.606,0.3352 4.5088,0.2359 5.9924,-0.2051 z m 60.3425,0.1869 c 5.1832,-1.0609 8.0652,-5.0596 8.0652,-11.1904 0,-3.4262 -0.9925,-6.1277 -2.9942,-8.1498 -2.1082,-2.1297 -4.8768,-3.0622 -8.4587,-2.849 -4.2782,0.2547 -7.3734,2.3889 -8.7852,6.0575 -1.3646,3.5463 -1.2618,7.9169 0.2584,10.9873 0.8563,1.7297 1.5647,2.5641 2.978,3.5078 2.6012,1.737 5.6859,2.3019 8.9365,1.6366 z m 92.0461,-0.3479 c 1.7633,-0.558 2.9081,-1.2407 4.0715,-2.4279 0.7506,-0.766 1.7371,-2.4869 2.0425,-3.5629 l 0.122,-0.4299 h -3.5002 -3.5001 l -0.4118,0.6361 c -1.3101,2.0236 -4.5968,1.5107 -5.7155,-0.8919 -0.2537,-0.545 -0.4622,-1.2274 -0.4632,-1.5164 v -0.5255 h 7.0701 7.0701 v -1.1297 c 0,-2.4375 -0.9332,-5.6473 -2.1943,-7.5472 -2.3834,-3.5907 -6.8841,-5.2676 -11.3268,-4.2201 -3.749,0.8839 -6.6833,3.9206 -7.6166,7.8824 -0.3656,1.552 -0.407,4.6794 -0.083,6.2566 0.8215,3.9972 3.8183,7.0086 7.8047,7.8432 1.8763,0.3928 4.7206,0.2335 6.6323,-0.3715 z m 36.074,0.3708 c 4.2527,-0.7581 6.8777,-3.4268 7.6673,-7.7947 l 0.1296,-0.7165 h -3.7045 -3.7046 l -0.2429,0.8121 c -0.5138,1.7178 -1.4121,2.3609 -3.0744,2.2012 -1.1421,-0.1097 -1.7787,-0.6161 -2.337,-1.8587 -0.8548,-1.9025 -0.7709,-5.695 0.1685,-7.615 0.416,-0.8502 0.658,-1.1022 1.3545,-1.4103 1.6403,-0.7256 3.2565,0.085 3.7347,1.8726 l 0.2243,0.8388 h 3.6865 c 4.1972,0 3.9045,0.153 3.4014,-1.7783 -1.0948,-4.2035 -4.254,-6.5323 -9.1735,-6.7622 -2.5345,-0.1185 -4.1166,0.1973 -6.0322,1.2039 -4.0879,2.1481 -6.1203,7.3788 -5.0532,13.0045 1.1223,5.916 6.394,9.1723 12.9555,8.0026 z m 22.9378,-0.194 c 3.2482,-0.8595 5.3245,-2.6754 6.4521,-5.6431 l 0.3626,-0.9544 h -3.4983 -3.4983 l -0.4323,0.5847 c -1.5758,2.1314 -4.7578,1.5805 -5.8406,-1.0111 -0.1627,-0.3893 -0.2958,-0.9685 -0.2958,-1.2872 v -0.5794 h 7.0983 7.0982 l -0.1219,-1.5867 c -0.5547,-7.2155 -4.672,-11.5837 -10.9293,-11.5952 -4.8838,-0.01 -8.8342,3.0424 -10.139,7.8316 -0.4233,1.5535 -0.4794,5.3577 -0.1015,6.879 0.894,3.5984 3.5145,6.3809 6.9041,7.3306 0.5781,0.1619 1.3089,0.3345 1.6242,0.3834 1.0232,0.1589 4.175,-0.05 5.3175,-0.3522 z m -191.3367,-3.158 v -3.0573 h -1.2507 c -2.2637,0 -2.4479,-0.5408 -2.3429,-6.879 l 0.059,-3.5351 1.7675,-0.055 1.7675,-0.055 v -2.3742 -2.3742 l -1.7675,-0.055 -1.7675,-0.055 -0.052,-3.2962 -0.052,-3.2962 h -3.526 -3.526 l -0.052,3.2962 -0.052,3.2962 -1.3853,0.056 -1.3854,0.056 v 2.3801 2.3802 h 1.3221 1.3222 l 0.077,6.4491 c 0.085,7.1263 0.193,7.8804 1.2769,8.9189 1.0544,1.0102 2.187,1.243 6.0816,1.25 l 3.4873,0.01 z m 57.1338,-2.9524 c 0,-6.6273 0.1125,-7.6189 0.9758,-8.6022 1.0231,-1.1652 2.9336,-1.0201 3.696,0.2807 0.3721,0.635 0.3949,1.0144 0.4507,7.5 l 0.059,6.8312 h 3.7059 3.7058 l 0.057,-6.6401 c 0.055,-6.381 0.073,-6.6702 0.4696,-7.4107 0.5048,-0.9425 1.1957,-1.3372 2.2984,-1.3129 1.1222,0.025 1.8745,0.7322 2.1514,2.0232 0.1176,0.5488 0.2013,3.5175 0.2013,7.1439 v 6.2049 l 3.6784,-0.052 3.6783,-0.052 -0.01,-7.3567 c -0.01,-7.8261 -0.121,-9.1398 -0.9267,-10.9616 -0.6133,-1.387 -1.4791,-2.3063 -2.7554,-2.9258 -0.9804,-0.4759 -1.2897,-0.5276 -3.1895,-0.5332 -1.9931,-0.01 -2.1703,0.026 -3.3674,0.6148 -1.1836,0.5817 -2.3269,1.6002 -3.0531,2.7197 l -0.3078,0.4745 -0.3926,-0.7611 c -0.5399,-1.0468 -1.6738,-2.094 -2.8104,-2.5957 -1.1934,-0.5266 -3.2278,-0.6905 -4.4221,-0.3561 -1.2151,0.3402 -2.9303,1.5239 -3.7699,2.6016 l -0.6964,0.8939 v -1.56 -1.5601 h -3.4395 -3.4395 v 10.7007 10.7006 h 3.7261 3.7261 z m 33.8732,-0.3438 c 0.059,-3.9045 0.1791,-6.6212 0.3117,-7.0479 0.4919,-1.583 1.7584,-2.3154 3.1807,-1.8393 1.6218,0.543 1.8038,1.487 1.8053,9.3649 v 5.8758 h 3.6151 3.6151 l 0.064,-6.449 c 0.061,-6.1276 0.084,-6.4935 0.4753,-7.3406 0.2265,-0.4903 0.6525,-1.0493 0.9468,-1.242 0.711,-0.4658 2.0373,-0.4323 2.7122,0.068 0.9658,0.7167 1.0473,1.3186 1.1393,8.4186 l 0.085,6.5446 h 3.6102 3.6102 l -0.01,-7.3089 c 0,-5.2526 -0.079,-7.7139 -0.2635,-8.7484 -0.6908,-3.8718 -2.6296,-5.6968 -6.2454,-5.8786 -2.7661,-0.1391 -4.6401,0.6991 -6.3615,2.8452 l -0.7434,0.9267 -0.5942,-0.9898 c -1.1777,-1.9618 -3.2062,-2.9425 -5.7487,-2.7793 -1.8063,0.1159 -3.3722,0.9352 -4.7974,2.5101 l -1.0354,1.1442 v -1.5612 -1.5613 h -3.3439 -3.344 v 10.7007 10.7006 h 3.6084 3.6083 z m 56.895,2.3885 c 0.01,-6.2697 0.4604,-8.1185 2.2541,-9.1697 0.7644,-0.448 1.1038,-0.5227 2.3743,-0.5227 h 1.4824 v -4.1801 -4.1801 l -1.2898,0.079 c -2.2636,0.1379 -3.6359,1.1488 -4.7502,3.4996 l -0.6341,1.3376 -0.01,-2.1497 -0.01,-2.1497 h -3.3439 -3.344 v 10.7007 10.7006 h 3.6306 3.6306 v -3.965 z m -210.2347,-0.9191 c 1.5246,-0.3086 3.4429,-1.0976 4.2015,-1.7282 0.3584,-0.2979 0.4744,-0.6788 0.6537,-2.1453 0.602,-4.9239 -1.1913,-8.9467 -4.9111,-11.0165 -4.0644,-2.2616 -11.1982,-2.3528 -14.629,-0.187 -0.4101,0.2589 -0.7902,0.4707 -0.8449,0.4707 -0.055,0 -0.099,-2.4077 -0.099,-5.3504 v -5.3503 h -5.1593 -5.1592 v 11.6654 11.6654 l 0.8121,0.3686 c 0.7249,0.3291 1.2789,0.3691 5.1592,0.3729 h 4.3472 v -4.2637 -4.2636 l 0.5255,-0.5033 c 0.8235,-0.7888 1.8934,-1.1405 3.7738,-1.2404 2.5667,-0.1364 4.0402,0.4072 5.0118,1.849 0.6552,0.9721 0.8583,1.9996 0.8462,4.2801 -0.014,2.6279 -0.3564,3.8856 -1.2781,4.6948 -0.3718,0.3265 -0.7589,0.5936 -0.8604,0.5936 -0.1014,0 -0.1844,0.086 -0.1844,0.191 0,0.3211 6.0933,0.2374 7.7947,-0.107 z"
         id="path1351"
         transform="scale(0.26458333)" />
      <path
         style="fill:#212529;fill-opacity:1;stroke:none;stroke-width:2.10191;stroke-linecap:round;stroke-linejoin:round;stroke-miterlimit:4;stroke-dasharray:none;stroke-opacity:1"
         d="m -4417.1189,1462.4917 c -1.2349,-0.7531 -1.8071,-2.4252 -1.8071,-5.281 0,-3.1101 0.8009,-4.9219 2.4106,-5.4531 2.637,-0.8703 4.5111,2.4613 3.9275,6.982 -0.3519,2.7259 -1.3809,4.1087 -3.0566,4.1074 -0.5324,-5e-4 -1.1277,-0.1439 -1.4744,-0.3553 z"
         id="path1353"
         transform="scale(0.26458333)" />
      <path
         style="fill:#212529;fill-opacity:1;stroke:none;stroke-width:2.10191;stroke-linecap:round;stroke-linejoin:round;stroke-miterlimit:4;stroke-dasharray:none;stroke-opacity:1"
         d="m -4478.358,1462.5192 c -1.1768,-0.8183 -1.6824,-2.045 -1.8479,-4.4833 -0.1336,-1.9684 0.1616,-3.7408 0.8094,-4.8586 0.5591,-0.965 1.1756,-1.3862 2.2366,-1.5283 1.142,-0.1529 1.979,0.4404 2.7243,1.9312 0.5522,1.1043 0.5733,1.2412 0.5725,3.7261 -8e-4,2.3969 -0.037,2.657 -0.5126,3.6733 -0.3369,0.7199 -0.7285,1.2258 -1.1457,1.4802 -0.7942,0.4842 -2.1838,0.5133 -2.8366,0.059 z"
         id="path1355"
         transform="scale(0.26458333)" />
      <path
         style="fill:#212529;fill-opacity:1;stroke:none;stroke-width:2.10191;stroke-linecap:round;stroke-linejoin:round;stroke-miterlimit:4;stroke-dasharray:none;stroke-opacity:1"
         d="m -4500.4835,1462.4598 c -1.0585,-0.6454 -1.6171,-2.1524 -1.7195,-4.6393 -0.1415,-3.4321 0.7189,-5.5599 2.459,-6.0812 2.1891,-0.6559 3.7112,1.2003 3.9383,4.8026 0.1789,2.839 -0.5657,5.2322 -1.8672,6.001 -0.7197,0.4251 -2.041,0.3861 -2.8106,-0.083 z"
         id="path1357"
         transform="scale(0.26458333)" />
      <path
         style="fill:#212529;fill-opacity:1;stroke:none;stroke-width:2.10191;stroke-linecap:round;stroke-linejoin:round;stroke-miterlimit:4;stroke-dasharray:none;stroke-opacity:1"
         d="m -4328.5438,1454.3384 c 0,-0.5958 0.4756,-1.7667 0.9145,-2.2517 0.5545,-0.6127 1.3763,-0.9264 2.4519,-0.9361 0.8132,-0.01 1.1851,0.098 1.7604,0.4962 0.785,0.544 1.44,1.5573 1.6511,2.5544 l 0.1315,0.621 h -3.4547 -3.4547 z"
         id="path1359"
         transform="scale(0.26458333)" />
      <path
         style="fill:#212529;fill-opacity:1;stroke:none;stroke-width:2.10191;stroke-linecap:round;stroke-linejoin:round;stroke-miterlimit:4;stroke-dasharray:none;stroke-opacity:1"
         d="m -4268.8762,1453.9405 c 0.2845,-2.5245 3.3365,-3.7035 5.3031,-2.0487 0.6921,0.5823 1.3351,1.76 1.3351,2.4451 v 0.4853 h -3.3688 -3.3688 z"
         id="path1361"
         transform="scale(0.26458333)" />
    </g>
    <path
       d="m 6.5912237,294.04896 q 0,-0.57094 0.2220309,-1.015 0.2220308,-0.44758 0.6378948,-0.68723 0.4158641,-0.23966 0.9762219,-0.23966 0.856401,0 1.3498021,0.53217 0.4934016,0.52864 0.4934016,1.44143 v 0.0423 q 0,0.89164 -0.4969263,1.41676 -0.4934011,0.52159 -1.339228,0.52159 -0.8141046,0 -1.3075058,-0.48635 -0.4934011,-0.48987 -0.5321665,-1.32513 z m 1.187685,0.074 q 0,0.52864 0.1656419,0.77535 0.1656356,0.2467 0.4898701,0.2467 0.6343701,0 0.648469,-0.97623 v -0.11982 q 0,-1.02557 -0.6555184,-1.02557 -0.5955985,0 -0.6449379,0.88459 z"
       style="font-style:normal;font-variant:normal;font-weight:900;font-stretch:normal;font-size:medium;line-height:125%;font-family:Roboto;-inkscape-font-specification:'Roboto Heavy';letter-spacing:-0.418042px;word-spacing:0px;fill:none;fill-opacity:1;stroke:none;stroke-width:0.180443px;stroke-linecap:butt;stroke-linejoin:miter;stroke-opacity:1"
       id="path1189"
       inkscape:connector-curvature="0" />
    <path
       d="m 10.383781,294.04896 q 0,-0.57094 0.222024,-1.015 0.222031,-0.44758 0.637895,-0.68723 0.415871,-0.23966 0.976229,-0.23966 0.856401,0 1.349802,0.53217 0.493394,0.52864 0.493394,1.44143 v 0.0423 q 0,0.89164 -0.496919,1.41676 -0.493401,0.52159 -1.339228,0.52159 -0.814111,0 -1.307512,-0.48635 -0.493395,-0.48987 -0.532167,-1.32513 z m 1.187679,0.074 q 0,0.52864 0.165641,0.77535 0.165642,0.2467 0.489877,0.2467 0.63437,0 0.648469,-0.97623 v -0.11982 q 0,-1.02557 -0.655518,-1.02557 -0.595605,0 -0.644945,0.88459 z"
       style="font-style:normal;font-variant:normal;font-weight:900;font-stretch:normal;font-size:medium;line-height:125%;font-family:Roboto;-inkscape-font-specification:'Roboto Heavy';letter-spacing:-0.418042px;word-spacing:0px;fill:none;fill-opacity:1;stroke:none;stroke-width:0.180443px;stroke-linecap:butt;stroke-linejoin:miter;stroke-opacity:1"
       id="path1191"
       inkscape:connector-curvature="0" />
    <path
       d="m 15.709393,291.22953 v 0.94803 h 0.627327 v 0.82468 h -0.627327 v 1.74452 q 0,0.21498 0.07754,0.29957 0.07753,0.0846 0.306611,0.0846 0.176216,0 0.296043,-0.0212 v 0.84935 q -0.320709,0.10221 -0.669617,0.10221 -0.613222,0 -0.90574,-0.289 -0.292512,-0.28898 -0.292512,-0.87754 v -1.89254 h -0.486352 v -0.82468 h 0.486352 v -0.94803 z"
       style="font-style:normal;font-variant:normal;font-weight:900;font-stretch:normal;font-size:medium;line-height:125%;font-family:Roboto;-inkscape-font-specification:'Roboto Heavy';letter-spacing:-0.418042px;word-spacing:0px;fill:none;fill-opacity:1;stroke:none;stroke-width:0.180443px;stroke-linecap:butt;stroke-linejoin:miter;stroke-opacity:1"
       id="path1193"
       inkscape:connector-curvature="0" />
    <path
       d="m 19.241154,294.62694 q 0,-0.27137 -0.193839,-0.42292 -0.190309,-0.15154 -0.673136,-0.31366 -0.482827,-0.16211 -0.789438,-0.31366 -0.99737,-0.48987 -0.99737,-1.34627 0,-0.42644 0.246697,-0.75068 0.250222,-0.32776 0.704858,-0.5075 0.45463,-0.18326 1.022043,-0.18326 0.553309,0 0.990321,0.19736 0.440537,0.19736 0.683709,0.56389 0.24318,0.363 0.24318,0.83173 h -1.2335 q 0,-0.31366 -0.19384,-0.48635 -0.190308,-0.17269 -0.518067,-0.17269 -0.331284,0 -0.525118,0.14802 -0.190308,0.1445 -0.190308,0.37005 0,0.19736 0.211457,0.35948 0.211456,0.15859 0.743623,0.33128 0.532166,0.16916 0.874018,0.36652 0.831735,0.47931 0.831735,1.32161 0,0.67313 -0.5075,1.05728 -0.507494,0.38415 -1.392093,0.38415 -0.623796,0 -1.131296,-0.22203 -0.503969,-0.22556 -0.76124,-0.61323 -0.253747,-0.39119 -0.253747,-0.89869 h 1.240543 q 0,0.41235 0.211457,0.6097 0.214981,0.19384 0.694283,0.19384 0.306611,0 0.482827,-0.1304 0.179741,-0.13392 0.179741,-0.37357 z"
       style="font-style:normal;font-variant:normal;font-weight:900;font-stretch:normal;font-size:medium;line-height:125%;font-family:Roboto;-inkscape-font-specification:'Roboto Heavy';letter-spacing:-0.418042px;word-spacing:0px;fill:none;fill-opacity:1;stroke:none;stroke-width:0.180443px;stroke-linecap:butt;stroke-linejoin:miter;stroke-opacity:1"
       id="path1195"
       inkscape:connector-curvature="0" />
    <path
       d="m 22.409909,295.14501 q 0.250222,0 0.387673,-0.13393 0.137444,-0.13744 0.133919,-0.38062 h 1.113673 q 0,0.62732 -0.451105,1.02909 -0.447586,0.40177 -1.155969,0.40177 -0.831728,0 -1.31103,-0.52159 -0.479303,-0.5216 -0.479303,-1.44496 v -0.0493 q 0,-0.57799 0.211457,-1.01852 0.214982,-0.44406 0.616753,-0.68018 0.401765,-0.23966 0.951555,-0.23966 0.743624,0 1.18063,0.41234 0.437012,0.41235 0.437012,1.1172 h -1.113673 q 0,-0.29604 -0.144493,-0.45463 -0.144494,-0.15859 -0.387673,-0.15859 -0.461679,0 -0.539216,0.58855 -0.02469,0.18679 -0.02469,0.51455 0,0.57445 0.137444,0.79648 0.137451,0.22204 0.437012,0.22204 z"
       style="font-style:normal;font-variant:normal;font-weight:900;font-stretch:normal;font-size:medium;line-height:125%;font-family:Roboto;-inkscape-font-specification:'Roboto Heavy';letter-spacing:-0.418042px;word-spacing:0px;fill:none;fill-opacity:1;stroke:none;stroke-width:0.180443px;stroke-linecap:butt;stroke-linejoin:miter;stroke-opacity:1"
       id="path1198"
       inkscape:connector-curvature="0" />
    <path
       d="m 24.130189,294.04896 q 0,-0.57094 0.222024,-1.015 0.222031,-0.44758 0.637895,-0.68723 0.415871,-0.23966 0.976228,-0.23966 0.856402,0 1.349803,0.53217 0.493394,0.52864 0.493394,1.44143 v 0.0423 q 0,0.89164 -0.496919,1.41676 -0.493401,0.52159 -1.339228,0.52159 -0.814111,0 -1.307506,-0.48635 -0.493401,-0.48987 -0.532166,-1.32513 z m 1.187678,0.074 q 0,0.52864 0.165642,0.77535 0.165642,0.2467 0.489877,0.2467 0.63437,0 0.648469,-0.97623 v -0.11982 q 0,-1.02557 -0.655519,-1.02557 -0.595604,0 -0.644944,0.88459 z"
       style="font-style:normal;font-variant:normal;font-weight:900;font-stretch:normal;font-size:medium;line-height:125%;font-family:Roboto;-inkscape-font-specification:'Roboto Heavy';letter-spacing:-0.418042px;word-spacing:0px;fill:none;fill-opacity:1;stroke:none;stroke-width:0.180443px;stroke-linecap:butt;stroke-linejoin:miter;stroke-opacity:1"
       id="path1200"
       inkscape:connector-curvature="0" />
    <g
       transform="matrix(0.61490582,0,0,0.61490582,393.03936,128.92069)"
       id="g1210"
       style="fill:none;fill-opacity:1">
      <path
         sodipodi:nodetypes="cccaccccccscsccccccsscccc"
         inkscape:connector-curvature="0"
         id="path1206"
         d="m -634.78877,263.24078 -2.88353,0.001 v 6.42282 c 0,0 0.0589,0.0637 0.0942,0.0884 0.0387,0.0271 0.1266,0.0641 0.1266,0.0641 0.27064,0.13663 0.34488,0.14597 1.05627,0.13438 0.35428,-0.005 0.92927,-0.0103 1.27743,-0.0103 0.19048,2.3e-4 0.25726,0.003 0.35968,0.006 -0.009,-0.0114 -0.0212,-0.0217 -0.0305,-0.0336 v -2.36938 c 0.25096,-0.31956 0.70162,-0.47902 1.35186,-0.47902 0.49057,0 0.85289,0.12287 1.08675,0.36896 0.23956,0.24244 0.35917,0.65016 0.35917,1.22317 0,0.51789 -0.0458,0.88154 -0.13694,1.0909 -0.11743,0.27416 -0.33912,0.45879 -0.66199,0.55655 0.13589,0.0196 0.26257,0.0357 0.35708,0.0434 0.411,0.0334 1.10503,0.0295 1.49035,-0.008 0.675,-0.0663 1.2987,-0.27469 1.60869,-0.53742 0.0478,-0.0405 0.0981,-0.0736 0.11319,-0.0739 0.0795,-0.29057 0.12141,-0.6082 0.12141,-0.95602 v -0.0935 c 0,-0.96602 -0.31358,-1.71535 -0.94101,-2.24793 -0.62744,-0.5326 -1.51744,-0.7984 -2.6696,-0.7984 -0.84992,-3e-5 -1.54281,0.19558 -2.07896,0.58859 z"
         style="font-style:normal;font-variant:normal;font-weight:900;font-stretch:normal;font-size:medium;line-height:125%;font-family:Roboto;-inkscape-font-specification:'Roboto Heavy';letter-spacing:-0.418042px;word-spacing:0px;fill:none;fill-opacity:1;stroke:none;stroke-width:0.351531px;stroke-linecap:butt;stroke-linejoin:miter;stroke-opacity:1" />
      <path
         style="opacity:1;fill:none;fill-opacity:1;stroke:none;stroke-width:0.444921;stroke-miterlimit:4;stroke-dasharray:none;stroke-opacity:1"
         d="m -632.51668,271.80112 c -0.26275,-0.0234 -0.63854,-0.0748 -0.82239,-0.11242 l -0.12274,-0.0251 -0.0533,-0.1405 c -0.0395,-0.10401 -0.0682,-0.14634 -0.11047,-0.163 -0.34902,-0.13747 -0.54898,-0.17952 -0.85369,-0.17952 -0.15607,0 -0.40561,0.0495 -0.4443,0.0881 -0.0106,0.0106 -0.0468,0.0975 -0.0806,0.1932 l -0.0614,0.17401 -0.64122,0.006 c -0.71599,0.007 -0.99278,-0.0127 -1.28741,-0.0915 -0.3022,-0.0809 -0.47887,-0.18635 -0.53428,-0.31897 -0.0532,-0.1275 -0.0314,-0.62701 0.0389,-0.88857 l 0.0251,-0.0934 0.12688,0.064 c 0.27063,0.13662 0.34482,0.14606 1.0562,0.13447 0.35427,-0.005 0.92898,-0.0102 1.27714,-0.01 0.62995,7.6e-4 0.63461,7.7e-4 0.96434,0.0729 0.18223,0.0397 0.38713,0.0913 0.45533,0.11473 0.18415,0.0633 0.92539,0.19172 1.2655,0.21936 0.41101,0.0334 1.1052,0.0295 1.49051,-0.008 0.67502,-0.0663 1.29874,-0.27479 1.60875,-0.53756 0.048,-0.0407 0.0994,-0.074 0.11419,-0.074 0.0944,0 0.16264,0.5942 0.0901,0.78422 -0.0661,0.17304 -0.20993,0.27284 -0.62473,0.43344 -0.36617,0.14178 -0.77617,0.24497 -1.25492,0.31584 -0.33214,0.0492 -1.26969,0.0735 -1.62141,0.0421 z"
         id="path1208"
         inkscape:connector-curvature="0" />
    </g>
  </g>
</svg>
